<?xml version="1.0" standalone="no"?>
<!DOCTYPE svg PUBLIC "-//W3C//DTD SVG 1.1//EN" "http://www.w3.org/Graphics/SVG/1.1/DTD/svg11.dtd" >
<svg xmlns="http://www.w3.org/2000/svg" xmlns:xlink="http://www.w3.org/1999/xlink" version="1.1">
<metadata>
Created by FontForge 20170731 at Tue Oct 20 10:43:48 2020
 By Aleksey,,,
Copr.1994, Petr van Blokland, designer. Produced by The Font Bureau, Inc. 
</metadata>
<defs>
<font id="Proforma-Light" horiz-adv-x="1024" >
  <font-face 
    font-family="Proforma"
    font-weight="400"
    font-stretch="normal"
    units-per-em="2048"
    panose-1="2 0 5 3 6 0 0 2 0 3"
    ascent="1638"
    descent="-410"
    x-height="915"
    cap-height="1339"
    bbox="-379 -532 2546 1913"
    underline-thickness="40"
    underline-position="-450"
    unicode-range="U+0020-FB02"
  />
<missing-glyph 
 />
    <glyph glyph-name="fi" unicode="fi" horiz-adv-x="1169" 
d="M1110 0h-430v47l131 25l20 151v467l-20 144l-170 16h-297v-627l23 -151l129 -25v-47h-428v47l149 25l23 151v627h-174v53l174 33v154q1 77 25.5 144.5t71.5 120t122 83t170 30.5q184 0 334 -129l-68 -86q-143 127 -301 127q-120 0 -189 -56.5t-65 -195.5l4 -213h295
l319 33l-20 -260v-465l20 -151l152 -25v-47z" />
    <glyph glyph-name="fl" unicode="fl" horiz-adv-x="1181" 
d="M1122 0h-430v47l129 25l21 151v979l-17 137q-138 43 -233 43q-122 0 -189 -60.5t-63 -180.5l4 -226h242v-65h-242v-627l23 -151l129 -25v-47h-428v47l149 25l23 151v627h-174v53l174 33v147q2 171 105 279t284 108q143 0 342 -51l-21 -217v-979l23 -151l149 -25v-47z" />
    <glyph glyph-name=".notdef" 
 />
    <glyph glyph-name=".null" horiz-adv-x="0" 
 />
    <glyph glyph-name="nonmarkingreturn" horiz-adv-x="682" 
 />
    <glyph glyph-name="space" unicode=" " horiz-adv-x="409" 
 />
    <glyph glyph-name="exclam" unicode="!" horiz-adv-x="425" 
d="M276 1057l-38 -678h-50l-36 678v373h124v-373zM311 84q0 -39 -27 -68.5t-71 -29.5q-41 0 -70.5 25.5t-29.5 72.5q0 39 28 69.5t72 30.5q38 0 68 -29t30 -71z" />
    <glyph glyph-name="quotedbl" unicode="&#x22;" horiz-adv-x="624" 
d="M504 1339l-27 -356h-74l-26 356h127zM246 1339l-27 -356h-72l-26 356h125z" />
    <glyph glyph-name="numbersign" unicode="#" 
d="M940 195h-213v-287h-86v287h-258v-287h-86v287h-213v88h213v354h-213v82h213v289h86v-289h258v289h86v-289h213v-82h-213v-354h213v-88zM641 283v354h-258v-354h258z" />
    <glyph glyph-name="dollar" unicode="$" 
d="M938 344q0 -155 -105 -258t-284 -123v-182h-68v178q-87 0 -156 11.5t-175 49.5l-21 293h82l39 -213q72 -29 121.5 -42t109.5 -13v588q-58 23 -95.5 39.5t-84 41.5t-75.5 51.5t-55.5 62t-39 80t-12.5 98.5q0 136 93 244t269 130v181h68v-177q165 0 342 -61l22 -295h-82
l-38 219q-51 29 -122 43.5t-122 14.5v-557q52 -21 85 -34.5t78.5 -36.5t74 -44t60.5 -52t49.5 -64t29.5 -77.5t12 -95.5zM481 772v526q-120 -18 -185 -87t-65 -164q0 -58 19 -102.5t57 -76.5t76.5 -52.5t97.5 -43.5zM823 307q0 52 -15.5 95t-38 71.5t-62 54.5t-73 42
t-85.5 36v0v0v0v0v0v-1v0v0v0v-1v0v0v-1v0v-1v0v-1v0v-1v0v-1v0v-1v-1v0v-1v-1v0v-1v-1v-1v-1v-1v-1v-1v-1v-1v-1v-1v-1v-1v-1v-1v-1v-1v-1v-1v-1v-1v-1v-1v-1v-1v-1v-1v-1v-1v-1v-1v-1v-1v-1v-1v-1v-1v-1v-1v-1v-1v-1v-1v-1v-1v-1v-1v-1v-1v-1v-1v-1v-1v-1v-1v-1v-1v-1v-1
v-1v-1v-1v-1v-1v-1v-1v-1v-1v-1v-1v-1v-1v-1v-1v-1v-1v-1v-1v-1v-2v-1v-1v-1v-1v-1v-1v-1v-1v-1v-1v-1v-1v-1v-1v-1v-1v-1v-2v-1v-1v-1v-1v-1v-1v-1v-1v-2v-1v-1v-1v-1v-1v-1v-2v-1v-1v-1v-1v-1v-1v-2v-1v-1v-1v-1v-2v-1v-1v-1v-1v-2v-1v-1v-1v-2v-1v-1v-1v-1v-2v-1v-1v-1
v-2v-1v-1v-1v-2v-1v-1v-2v-1v-1v-1v-2v-1v-1v-2v-1v-1v-2v-1v-1v-1v-2v-1v-1v-2v-1v-1v-2v-1v-1v-2v-1v-2v-1v-1v-2v-1v-1v-2v-1v-2v-1v-1v-2v-1v-1v-2v-1v-2v-1v-1v-2v-1v-2v-1v-2v-1v-1v-2v-1v-2v-1v-2v-1v-2v-1v-1v-2v-1v-2v-1v-2v-1v-2v-1v-2v-1v-2v-1v-2v-1v-2v-1v-2
v-1v-2v-1v-2v-1v-2v-1v-2v-1v-2v-1v-2v-1v-2v-1v-2v-1v-2v-2v-1v-2v-1v-2v-1v-2v-2v-1v-2v-1v-2v-1v-2v-2v-1v-2v-1v-2v-2v-1v-2v-1v-2v-2v-1v-2v-1v-2v-2v-1v-2v-2v-1v-2v-1v-2v-2v-1v-2v-2v-1v-2v-2v-1v-2v-2v-1v-2v-2v-1v-2v-2v-1v-2v-2v-1v-2v-2v-2v-1v-2v-2v-1v-2v-2
v-2v-1v-2v-2v-1v-2v-2v-2v-1v-2v-2v-2v-1v-2v-2v-2v-1v-2v-2v-2v-1v-2v-2v-2v-1v-2v-2v-2v-2v-1v-2v-2v-2v-2v-1v-2v-2v-2v-2v-1v-2v-2v-2v-2v-2v-1v-2v-2v-2v-2v-2v-1v-2v-2v-2v-2v-2v-2v-1v-2v-2v-2v-2v-2v-2v-2v-1v-2v-2v-2v-2v-2v-2v-8q122 18 198 85t76 171z" />
    <glyph glyph-name="percent" unicode="%" horiz-adv-x="1869" 
d="M1755 352q0 -172 -87.5 -280.5t-237.5 -108.5q-146 0 -239 107t-93 280q0 169 89.5 275t237.5 106t239 -101.5t91 -277.5zM1221 1358l-500 -1372l-72 26l502 1372zM772 1001q0 -172 -88 -280.5t-238 -108.5q-146 0 -238.5 107t-92.5 280q0 169 89.5 275t237.5 106
t239 -101.5t91 -277.5zM1663 344q0 144 -66 232t-180 88q-102 0 -163.5 -88t-61.5 -230q0 -130 69 -220.5t171 -90.5q104 0 167 82t64 227zM680 993q0 144 -66 231t-180 87q-102 1 -163.5 -86.5t-61.5 -231.5q0 -129 69 -219t171 -90q104 0 167 82t64 227z" />
    <glyph glyph-name="ampersand" unicode="&#x26;" horiz-adv-x="1546" 
d="M1468 868l-104 -24l-107 -154l-243 -401l223 -209l182 -33v-47h-297l-172 197q-79 -120 -177.5 -180t-231.5 -60q-171 0 -291.5 115.5t-120.5 283.5q0 120 72.5 224.5t197.5 181.5q-114 101 -162.5 183.5t-48.5 178.5q0 131 108 222.5t263 91.5q109 0 183.5 -75.5
t74.5 -193.5q0 -200 -293 -389l443 -446l209 356l63 154l-188 24v47h417v-47zM715 1151q0 92 -55.5 153.5t-147.5 61.5q-89 0 -150 -61.5t-61 -161.5q0 -87 40.5 -157.5t139.5 -162.5q133 92 183.5 163t50.5 165zM909 242l-469 479q-100 -71 -154.5 -154t-54.5 -166
q0 -142 104.5 -248t244.5 -106q94 0 181 49.5t148 145.5z" />
    <glyph glyph-name="quotesingle" unicode="'" horiz-adv-x="366" 
d="M246 1339l-27 -356h-72l-26 356h125z" />
    <glyph glyph-name="parenleft" unicode="(" horiz-adv-x="628" 
d="M590 -342l-41 -45q-179 141 -273.5 274.5t-152.5 341.5q-37 139 -37 293q0 157 37 293q52 188 153.5 337t272.5 280l41 -43q-143 -140 -222 -265t-122 -309q-33 -129 -33 -293q0 -141 33 -293q39 -167 111.5 -288t232.5 -283z" />
    <glyph glyph-name="parenright" unicode=")" horiz-adv-x="628" 
d="M543 522q0 -157 -37 -293q-52 -188 -153 -335.5t-275 -280.5l-39 43q143 140 222 265t122 308q33 152 33 293q0 144 -33 293q-38 166 -111.5 288t-232.5 283l39 46q179 -141 274.5 -275t153.5 -342q37 -139 37 -293z" />
    <glyph glyph-name="asterisk" unicode="*" 
d="M934 285l-62 -107l-333 230l34 -402h-122l34 402l-333 -230l-62 107l367 172l-367 174l62 106l333 -231l-34 403h122l-34 -403l333 231l62 -106l-367 -174z" />
    <glyph glyph-name="plus" unicode="+" 
d="M948 428h-399v-428h-74v428h-399v74h399v416h74v-416h399v-74z" />
    <glyph glyph-name="comma" unicode="," horiz-adv-x="387" 
d="M309 -2q0 -44 -11.5 -84.5t-35 -78.5t-66 -67t-98.5 -42l-22 61q74 19 109.5 67.5t23.5 116.5q-54 -4 -84.5 24t-30.5 75q0 40 27 69t72 29q53 0 84.5 -46t31.5 -124z" />
    <glyph glyph-name="hyphen" unicode="-" horiz-adv-x="512" 
d="M467 446h-422v74h422v-74z" />
    <glyph glyph-name="period" unicode="." horiz-adv-x="387" 
d="M295 84q0 -40 -27.5 -70t-74.5 -30q-43 0 -73 26.5t-30 73.5q0 42 29 73t74 31q41 0 71.5 -29.5t30.5 -74.5z" />
    <glyph glyph-name="slash" unicode="/" horiz-adv-x="606" 
d="M563 1354l-446 -1372l-76 22l446 1374z" />
    <glyph glyph-name="zero" unicode="0" 
d="M940 463q0 -226 -117 -366t-309 -140q-190 0 -309 140t-119 366q0 219 121.5 357t312.5 138q196 0 308 -133.5t112 -361.5zM840 453q0 196 -85 315t-239 119q-101 0 -177 -60t-113.5 -157.5t-37.5 -218.5q0 -114 42 -210t118.5 -153.5t171.5 -58.5q143 -2 231.5 114
t88.5 310z" />
    <glyph glyph-name="one" unicode="1" 
d="M811 0h-604v47l227 35l23 141v467l-23 144l-227 34v47h604v-47l-227 -34l-23 -144v-467l23 -141l227 -35v-47z" />
    <glyph glyph-name="two" unicode="2" 
d="M848 131l-21 -131h-634v74q210 176 285 251q186 186 195 327q1 8 1 16q0 93 -51 147.5t-146 54.5q-125 0 -254 -96l-35 41q64 67 150.5 105t177.5 38q127 0 203 -71.5t76 -198.5q0 -129 -116 -271.5t-355 -318.5h317z" />
    <glyph glyph-name="three" unicode="3" 
d="M821 8q0 -177 -153 -297.5t-387 -120.5h-99v88q65 -14 129 -14q167 0 280.5 90.5t113.5 235.5q0 291 -439 297v63q81 5 152 27t129 60t91.5 98t33.5 135q0 90 -61.5 147t-153.5 57q-112 0 -238 -100l-41 45q152 139 316 139q130 0 213.5 -76.5t83.5 -203.5
q0 -107 -75 -196.5t-218 -137.5q144 -14 233.5 -105t89.5 -231z" />
    <glyph glyph-name="four" unicode="4" 
d="M946 188l-24 -120h-222v-379l-106 -23v402h-500v84l541 802h65v-798zM594 156v628l-410 -628h410z" />
    <glyph glyph-name="five" unicode="5" 
d="M842 31q0 -189 -148.5 -315t-406.5 -126h-86v84q60 -14 129 -14q175 0 288 98.5t113 255.5q0 57 -15 105.5t-53 94t-97 77t-152.5 50.5t-214.5 19l45 555h577l-24 -120l-191 20h-297l-33 -348q267 0 416.5 -116t149.5 -320z" />
    <glyph glyph-name="six" unicode="6" 
d="M893 410q0 -190 -114 -322.5t-279 -132.5q-160 0 -259.5 127t-99.5 379q0 178 43 328t126 264t210 185.5t289 90.5l8 -65q-214 -35 -355.5 -178t-187.5 -400q53 59 132 93t157 36q145 2 237.5 -111t92.5 -294zM782 360q0 157 -71.5 256.5t-188.5 100.5q-65 0 -124 -23
t-130 -84q-8 -102 -8 -131q0 -124 27.5 -221.5t91 -160t156.5 -62.5q108 0 177.5 92.5t69.5 232.5z" />
    <glyph glyph-name="seven" unicode="7" 
d="M854 866l-551 -1210l-102 45l549 1112h-392l-198 -20l20 122h674v-49z" />
    <glyph glyph-name="eight" unicode="8" 
d="M893 324q0 -153 -116.5 -261t-287.5 -108q-161 0 -259.5 87t-98.5 237q0 127 85.5 227.5t229.5 169.5q-59 40 -95.5 67t-73 61t-56 65t-31.5 69.5t-12 83.5q0 134 108.5 226.5t264.5 92.5q134 0 222.5 -80t88.5 -210q0 -109 -65.5 -201t-188.5 -150q165 -116 225 -199.5
t60 -176.5zM748 1028q0 104 -61 176t-155 72q-101 0 -171 -60t-70 -155q0 -48 12.5 -85t48 -76t76.5 -72.5t119 -88.5q100 51 150.5 121t50.5 168zM776 264q0 47 -12.5 88t-31.5 72.5t-57.5 68.5t-75 66t-99.5 74q-107 -51 -176.5 -142t-69.5 -192q0 -115 76 -194.5
t192 -79.5q104 0 179 69.5t75 169.5z" />
    <glyph glyph-name="nine" unicode="9" 
d="M885 455q0 -128 -24.5 -246.5t-78 -226t-130.5 -189.5t-189 -137t-248 -70l-10 64q39 10 64 17t67.5 21.5t72 30t70.5 41.5t70.5 55t63 72t58 92t46 114t35.5 140q-73 -76 -140 -104.5t-149 -28.5q-147 0 -240.5 109.5t-93.5 294.5q0 194 113 324t282 130
q167 0 264 -130.5t97 -372.5zM766 442q0 118 -29.5 215.5t-94.5 160.5t-155 63q-107 0 -177 -90t-70 -236q0 -155 72.5 -255.5t189.5 -100.5q151 0 254 106q10 112 10 137z" />
    <glyph glyph-name="colon" unicode=":" horiz-adv-x="387" 
d="M293 713q0 -41 -27.5 -71.5t-72.5 -29.5q-43 -2 -74 25.5t-31 75.5q0 42 29 72.5t76 29.5q39 2 69.5 -27.5t30.5 -74.5zM293 84q0 -39 -27.5 -69.5t-72.5 -30.5q-44 0 -74.5 26.5t-30.5 73.5q0 42 29 73t76 31q40 0 70 -30t30 -74z" />
    <glyph glyph-name="semicolon" unicode=";" horiz-adv-x="387" 
d="M287 719q0 -39 -29 -71t-74 -32q-43 0 -73.5 27.5t-30.5 75.5q0 40 29.5 72t74.5 32q40 0 71.5 -30.5t31.5 -73.5zM305 0q0 -93 -52 -169.5t-159 -102.5l-22 59q74 20 109 69t22 117q-53 -4 -83 24t-30 75q0 41 25.5 69.5t70.5 28.5q54 0 86.5 -46t32.5 -124z" />
    <glyph glyph-name="less" unicode="&#x3c;" 
d="M784 25l-53 -56l-491 494l491 489l53 -53l-440 -436z" />
    <glyph glyph-name="equal" unicode="=" 
d="M934 549h-844v74h844v-74zM934 283h-844v75h844v-75z" />
    <glyph glyph-name="greater" unicode="&#x3e;" 
d="M786 463l-491 -494l-53 56l438 438l-438 436l53 53z" />
    <glyph glyph-name="question" unicode="?" horiz-adv-x="819" 
d="M741 1122q0 -213 -172 -370q-155 -146 -155 -375h-72q0 151 42.5 244.5t111.5 164.5q73 73 113 142t40 155q0 117 -74.5 186.5t-203.5 69.5q-67 0 -138 -29.5t-129 -86.5l-43 43q68 77 163 122.5t188 45.5q140 0 234.5 -87t94.5 -225zM479 84q0 -38 -26.5 -68t-71.5 -30
q-41 0 -70.5 25.5t-29.5 72.5q0 39 28 69.5t72 30.5q38 0 68 -29t30 -71z" />
    <glyph glyph-name="at" unicode="@" horiz-adv-x="2048" 
d="M1896 561q0 -249 -157.5 -400t-413.5 -181l-113 -13l25 223q-62 -118 -138 -174.5t-175 -56.5q-101 0 -167.5 68.5t-66.5 177.5q0 134 113 219q112 81 411 84v131q0 122 -59.5 177.5t-150.5 55.5q-126 0 -232 -100l-37 41q136 148 326 148q117 0 187.5 -73t70.5 -206
v-461l22 -149q224 2 345.5 114.5t121.5 327.5q0 196 -103.5 364.5t-282 268.5t-388.5 100q-218 0 -400 -102t-289 -285t-107 -409q0 -166 65 -318.5t175.5 -263t264.5 -176.5t324 -66q238 0 506 131l26 -53q-121 -66 -268.5 -105.5t-292.5 -39.5q-181 0 -345.5 68
t-282.5 183t-188 274t-70 335q0 185 72.5 351t195 284.5t291.5 188t356 69.5q223 0 414 -101.5t303 -275t112 -375.5zM1214 231v220q-208 0 -313 -60q-100 -54 -100 -168q0 -70 43.5 -119t109.5 -49q63 0 135.5 46.5t124.5 129.5z" />
    <glyph glyph-name="A" unicode="A" horiz-adv-x="1376" 
d="M1360 0h-481v47l159 33l-55 207l-90 260h-442l-99 -260l-53 -207l170 -33v-47h-453v47l170 33l90 207l396 1087h57l383 -1087l88 -207l160 -33v-47zM868 616l-194 562l-201 -562h395z" />
    <glyph glyph-name="B" unicode="B" horiz-adv-x="1075" 
d="M993 399q0 -186 -120.5 -292.5t-364.5 -106.5h-442v47l165 33l23 207v766l-23 207l-165 32v47h512q94 0 163 -24t108 -67t57 -94t18 -112q0 -106 -69 -193.5t-193 -129.5q166 0 248.5 -88.5t82.5 -231.5zM788 1024q0 111 -66.5 178.5t-201.5 67.5h-147v-527h88
q174 0 250.5 71t76.5 210zM864 375q0 145 -82 222t-262 77h-147v-387l22 -187q82 -32 164 -32q143 0 224 81.5t81 225.5z" />
    <glyph glyph-name="C" unicode="C" horiz-adv-x="1296" 
d="M1212 309l-20 -299q-18 -3 -71 -12t-78.5 -12.5t-73.5 -9t-96.5 -7.5t-106.5 -2q-216 0 -366.5 90t-224 249.5t-73.5 377.5q0 118 25.5 220.5t80 189t134 148t193 96t251.5 34.5q184 0 385 -43l23 -299h-82l-45 236q-138 43 -299 43q-255 0 -395 -156.5t-140 -445.5
q0 -301 150.5 -488.5t402.5 -187.5q74 0 157 15t144 42l46 221h79z" />
    <glyph glyph-name="D" unicode="D" horiz-adv-x="1425" 
d="M1323 737q0 -162 -43.5 -295t-130.5 -232.5t-227 -154.5t-322 -55h-534v47l174 33l20 207v766l-20 207l-174 32v47h671q150 0 264 -44.5t183.5 -126t104 -189.5t34.5 -242zM1200 690q0 580 -596 580h-225v-983l16 -181q128 -32 260 -32q174 0 299 83.5t185.5 221
t60.5 311.5z" />
    <glyph glyph-name="E" unicode="E" horiz-adv-x="1105" 
d="M1038 309l-22 -309h-950v47l174 33l20 207v766l-20 207l-174 32v47h913l22 -338h-71l-43 234l-195 33h-313v-547h178l172 22l21 172h59v-458h-59l-21 174l-172 20h-178v-364l22 -183l170 -32h170l181 32l45 205h71z" />
    <glyph glyph-name="F" unicode="F" horiz-adv-x="997" 
d="M981 1030h-70l-43 205l-196 33h-293v-547h168l172 22l22 172h60v-458h-60l-22 174l-172 20h-168v-364l22 -207l205 -33v-47h-540v47l174 33l20 207v766l-20 207l-174 32v47h895z" />
    <glyph glyph-name="G" unicode="G" horiz-adv-x="1390" 
d="M1366 520l-141 -33l-23 -206v-281q-11 -2 -50 -8.5t-54.5 -9t-51.5 -7.5t-60.5 -7.5t-60.5 -5.5t-73 -4t-78 -1q-161 0 -289 52t-211.5 146.5t-127.5 225t-44 287.5q0 123 25 228t79.5 193.5t136 151t199.5 97t265 34.5q190 0 379 -43l22 -299h-84l-39 238
q-144 41 -307 41q-252 0 -399 -160t-148 -447q0 -309 155.5 -495.5t418.5 -186.5q145 0 270 56v205l-20 206l-174 33v49h485v-49z" />
    <glyph glyph-name="H" unicode="H" horiz-adv-x="1470" 
d="M1405 0h-504v47l170 33l21 207v364h-713v-364l22 -207l170 -33v-47h-505v47l174 33l20 207v766l-20 207l-174 32v47h505v-47l-170 -32l-22 -207v-332h713v332l-21 207l-170 32v47h504v-47l-172 -32l-23 -207v-766l23 -207l172 -33v-47z" />
    <glyph glyph-name="I" unicode="I" horiz-adv-x="638" 
d="M573 0h-507v47l174 33l20 207v766l-20 207l-174 32v47h507v-47l-172 -32l-22 -207v-766l22 -207l172 -33v-47z" />
    <glyph glyph-name="J" unicode="J" horiz-adv-x="616" 
d="M561 1292l-172 -32l-22 -207v-967q0 -198 -54.5 -321.5t-187.5 -245.5l-37 45q160 166 160 467v1022l-21 207l-172 32v47h506v-47z" />
    <glyph glyph-name="K" unicode="K" horiz-adv-x="1318" 
d="M1303 0h-525v47l154 33l-172 207l-164 182l-213 207l201 209l145 168l160 207l-150 32v47h490v-47l-172 -32l-226 -207l-301 -342l396 -424l219 -207l158 -33v-47zM563 1292l-162 -32l-22 -207v-766l22 -207l158 -33v-47h-493v47l174 33l20 207v766l-20 207l-174 32v47
h497v-47z" />
    <glyph glyph-name="L" unicode="L" horiz-adv-x="1040" 
d="M1024 309l-20 -309h-938v47l174 33l20 207v766l-20 207l-174 32v47h507v-47l-172 -32l-22 -207v-766l22 -183l170 -32h158l182 32l43 205h70z" />
    <glyph glyph-name="M" unicode="M" horiz-adv-x="1767" 
d="M1702 0h-508v47l172 33l23 207v962l-390 -962l-104 -287h-88l-100 287l-375 962v-962l22 -207l172 -33v-47h-460v47l174 33l20 207v766l-20 207l-174 32v47h374l97 -286l337 -887l361 893l92 280h375v-47l-172 -32l-23 -207v-766l23 -207l172 -33v-47z" />
    <glyph glyph-name="N" unicode="N" horiz-adv-x="1456" 
d="M1391 1292l-172 -32l-21 -207v-1088h-82l-192 322l-592 891v-891l22 -207l172 -33v-47h-460v47l174 33l20 207v766l-20 207l-174 32v47h313l172 -286l575 -867v867l-22 207l-172 32v47h459v-47z" />
    <glyph glyph-name="O" unicode="O" horiz-adv-x="1415" 
d="M1313 682q0 -161 -39 -293t-116 -229t-197.5 -150t-276.5 -53q-150 0 -262 50.5t-181.5 145t-104 224.5t-34.5 295q0 329 164 520.5t467 191.5q274 0 427 -188t153 -514zM1180 657q0 201 -50.5 349t-154.5 232.5t-252 84.5q-227 0 -358.5 -168.5t-131.5 -472.5
q0 -149 27.5 -268t84 -209.5t150.5 -139.5t220 -49q203 0 334 173.5t131 467.5z" />
    <glyph glyph-name="P" unicode="P" horiz-adv-x="993" 
d="M950 1024q0 -78 -26.5 -146t-83 -124.5t-156 -89.5t-233.5 -33h-72v-344l22 -207l193 -33v-47h-528v47l174 33l20 207v766l-20 207l-174 32v47h546q164 0 251 -86.5t87 -228.5zM827 1004q2 123 -76.5 194.5t-240.5 71.5h-131v-557q10 -2 25.5 -5t21 -4t15.5 -3t17.5 -2
t18.5 -0.5t27 -0.5q149 -1 235 81t88 225z" />
    <glyph glyph-name="Q" unicode="Q" horiz-adv-x="1415" 
d="M1313 682q0 -332 -167 -529t-431 -200l444 -213l-72 -111l-454 291l22 37q-260 -2 -406.5 185t-146.5 530q0 331 167.5 521.5t461.5 190.5q143 0 255 -53t183 -148t107.5 -222t36.5 -279zM1180 657q0 113 -17.5 212.5t-54 183t-90 143.5t-129 93.5t-166.5 33.5
q-226 0 -358 -168.5t-132 -472.5q0 -324 119.5 -495t362.5 -171q98 0 182 42t147.5 120.5t99.5 201.5t36 277z" />
    <glyph glyph-name="R" unicode="R" horiz-adv-x="1157" 
d="M1141 0h-267l-139 287l-194 350h-162v-350l22 -207l148 -33v-47h-483v47l174 33l20 207v766l-20 207l-174 32v47h536q172 0 260 -85t88 -230q0 -130 -77.5 -227t-217.5 -135l217 -375l134 -207l135 -33v-47zM827 1006q0 129 -79 196.5t-234 67.5h-135v-553q10 -2 25.5 -5
t21 -4t15.5 -3t17.5 -2t18.5 -0.5t27 -0.5q145 0 234 81.5t89 222.5z" />
    <glyph glyph-name="S" unicode="S" horiz-adv-x="993" 
d="M918 344q0 -174 -128 -279.5t-341 -105.5q-80 0 -149 12t-169 49l-22 293h81l39 -213q68 -29 116 -42t106 -13q151 0 252.5 70t101.5 192q0 48 -11.5 87.5t-35.5 69.5t-50 52.5t-66.5 42.5t-73 33t-79.5 31q-15 5 -22 8q-58 22 -96.5 39t-85.5 42.5t-76.5 52.5t-56.5 62
t-39.5 80t-12.5 99q0 70 27 136t79 121t139 88t196 33q151 0 331 -61l23 -295h-82l-41 219q-49 28 -117.5 43t-115.5 15q-156 0 -241 -74t-85 -184q0 -51 17 -93t41 -69t68 -53t77 -40.5t90 -35.5q170 -66 240 -110q151 -95 169 -252q3 -24 3 -50z" />
    <glyph glyph-name="T" unicode="T" horiz-adv-x="1177" 
d="M1151 1030h-72l-43 217l-205 21h-180v-981l21 -207l172 -33v-47h-506v47l172 33l22 207v981h-184l-205 -21l-43 -217h-71l22 309h1077z" />
    <glyph glyph-name="U" unicode="U" horiz-adv-x="1447" 
d="M1405 1292l-172 -32l-23 -207v-570q0 -275 -128.5 -402.5t-374.5 -127.5q-228 0 -349.5 113.5t-121.5 343.5v643l-21 207l-172 32v47h506v-47l-172 -32l-23 -207v-656q0 -176 97.5 -276.5t277.5 -100.5q87 0 156.5 23t126 72.5t87.5 138t31 209.5v590l-20 207l-172 32v47
h467v-47z" />
    <glyph glyph-name="V" unicode="V" horiz-adv-x="1357" 
d="M1341 1292l-167 -32l-93 -213l-250 -760l-96 -326h-90l-104 326l-269 766l-92 207l-164 32v47h480v-47l-158 -32l53 -207l318 -908l292 908l50 207l-172 32v47h462v-47z" />
    <glyph glyph-name="W" unicode="W" horiz-adv-x="2074" 
d="M2058 1292l-168 -32l-92 -213l-239 -760l-97 -326h-92l-100 326l-232 653l-213 -653l-98 -326h-90l-102 326l-263 766l-92 207l-164 32v47h478v-47l-156 -32l53 -207l309 -908l299 908l-94 207l-164 32v47h482v-47l-158 -32l55 -207l314 -908l286 908l47 207l-170 32v47
h461v-47z" />
    <glyph glyph-name="X" unicode="X" horiz-adv-x="1218" 
d="M1202 0h-479v47l145 33l-96 207q-182 307 -184 307q0 1 -48 -76l-96 -154l-49 -77l-106 -207l139 -33v-47h-412v47l142 33l151 207q15 24 40 63t77.5 122t87.5 138t35 54l-234 389l-141 207l-141 32v47h463v-47l-152 -32l111 -207l166 -279l176 279l114 207l-149 32v47
h424v-47l-154 -32l-149 -207l-221 -348l249 -414l133 -211l158 -33v-47z" />
    <glyph glyph-name="Y" unicode="Y" horiz-adv-x="1189" 
d="M1174 1292l-134 -32l-137 -207l-231 -424v-342l20 -207l174 -33v-47h-508v47l172 33l23 207v299l-270 467l-142 207l-125 32v47h457v-47l-156 -32l103 -207l211 -365l194 365l93 207l-152 32v47h408v-47z" />
    <glyph glyph-name="Z" unicode="Z" horiz-adv-x="1101" 
d="M1012 291l-23 -291h-899v53l148 234l450 766l115 217h-379l-199 -33l-43 -186h-71l20 288h844v-47l-148 -239l-450 -766l-115 -215h449l186 32l45 187h70z" />
    <glyph glyph-name="bracketleft" unicode="[" horiz-adv-x="464" 
d="M434 -377h-301v1821h301v-47l-174 -33l-22 -209v-1243l22 -207l174 -33v-49z" />
    <glyph glyph-name="backslash" unicode="\" horiz-adv-x="606" 
d="M563 4l-76 -22l-446 1372l78 24z" />
    <glyph glyph-name="bracketright" unicode="]" horiz-adv-x="464" 
d="M342 -377h-301v49l174 33l23 207v1243l-23 209l-174 33v47h301v-1821z" />
    <glyph glyph-name="asciicircum" unicode="^" horiz-adv-x="571" 
d="M561 1147l-39 -37l-229 186l-234 -186l-36 37l270 268z" />
    <glyph glyph-name="underscore" unicode="_" 
d="M1034 -498h-1044v82h1044v-82z" />
    <glyph glyph-name="grave" unicode="`" horiz-adv-x="0" 
d="M37 1149l-37 -37l-379 309l72 72z" />
    <glyph glyph-name="a" unicode="a" horiz-adv-x="929" 
d="M893 0l-279 -33l27 223q-60 -111 -135.5 -171t-179.5 -60q-101 0 -167.5 67t-66.5 179q0 127 113 215q113 90 411 90v149q0 100 -56 156.5t-152 56.5q-125 0 -234 -100l-37 41q135 148 328 148q114 0 186 -66.5t72 -208.5v-463l22 -151l148 -25v-47zM616 231v220
q-211 0 -313 -60q-98 -55 -98 -168q0 -70 42.5 -119t108.5 -49t137 46.5t123 129.5z" />
    <glyph glyph-name="b" unicode="b" horiz-adv-x="1048" 
d="M948 524q0 -163 -60.5 -291t-176.5 -202t-269 -74q-45 0 -69 1.5t-68.5 11.5t-97.5 30v1202l-21 154l-172 24v47l320 33l-21 -258v-411q62 78 147 122.5t175 44.5q134 0 223.5 -122.5t89.5 -311.5zM836 492q0 164 -66.5 266t-171.5 102q-165 0 -285 -151v-486l21 -170
q93 -26 149 -26q92 0 162 39.5t110.5 106.5t60.5 147.5t20 171.5z" />
    <glyph glyph-name="c" unicode="c" horiz-adv-x="890" 
d="M805 86q-168 -129 -328 -129q-168 0 -272.5 131.5t-104.5 353.5q0 228 112 372t292 144q67 0 123 -9t141 -36l23 -225h-64l-47 158q-95 43 -182 43q-135 0 -213 -105.5t-78 -302.5t84.5 -313.5t232.5 -116.5q57 0 124 21t126 61z" />
    <glyph glyph-name="d" unicode="d" horiz-adv-x="1046" 
d="M1010 0l-275 -43l23 186q-76 -97 -150 -141.5t-172 -44.5q-154 0 -245 119t-91 327q0 249 134.5 402t351.5 153q82 0 149 -16v260l-22 154l-172 24v47l321 33l-20 -258v-979l22 -151l146 -25v-47zM735 203v647q-90 37 -176 37q-168 0 -257 -120.5t-89 -324.5
q0 -188 67 -289.5t197 -101.5q132 0 258 152z" />
    <glyph glyph-name="e" unicode="e" horiz-adv-x="911" 
d="M817 543h-610q-2 -41 -2 -70q0 -199 90 -314.5t252 -115.5q115 0 215 74l31 -43q-77 -65 -143 -91t-161 -26q-180 0 -284.5 129t-104.5 365q0 240 99.5 373.5t281.5 133.5q336 0 336 -415zM700 629q0 125 -61.5 196.5t-165.5 71.5q-215 0 -260 -289h330z" />
    <glyph glyph-name="f" unicode="f" horiz-adv-x="614" 
d="M715 1444l-47 -109q-87 37 -154 37q-87 0 -132 -44t-42 -157l4 -256h242v-65h-242v-627l23 -151l172 -25v-47h-471v47l149 25l23 151v627h-174v53l174 33v178q1 170 93 264.5t240 94.5q62 0 142 -29z" />
    <glyph glyph-name="g" unicode="g" horiz-adv-x="983" 
d="M936 854h-209q46 -64 65 -111.5t19 -121.5q0 -142 -94.5 -241t-241.5 -99q-49 0 -98 14q-50 -28 -85.5 -62t-35.5 -63q0 -17 9.5 -31.5t31 -26t40.5 -19.5t54.5 -15.5t55 -11.5t59.5 -11q23 -4 64 -10.5t63 -10t57.5 -10.5t55.5 -13.5t48 -17t43.5 -22.5t33.5 -29t27 -37
t15.5 -46.5t6.5 -57.5q0 -143 -130 -238t-329 -95q-160 0 -262.5 69t-102.5 184q0 81 62.5 152.5t154.5 114.5q-168 38 -168 139q0 54 41.5 97t128.5 93q-86 35 -135 119t-49 195q0 142 94 233.5t250 91.5q62 0 109 -13t102 -50l250 65v-104zM694 600q0 133 -60 215t-165 82
q-102 0 -161.5 -71.5t-59.5 -202.5q0 -130 60.5 -204.5t174.5 -74.5q99 0 155 68.5t56 187.5zM846 -242q0 33 -9.5 56t-37.5 47t-85 43t-147 35l-188 34q-68 -38 -123 -96.5t-55 -122.5q0 -92 87 -148.5t226 -56.5q138 0 235 60.5t97 148.5z" />
    <glyph glyph-name="h" unicode="h" horiz-adv-x="1159" 
d="M1118 0h-436v47l137 25l21 151v389q0 118 -55 185t-164 67q-45 0 -85 -13t-75 -40.5t-54 -46t-49 -51.5v-490l23 -151l135 -25v-47h-434v47l149 25l23 151v979l-23 154l-172 24v47l320 33l-21 -258v-407q54 78 132.5 120.5t166.5 42.5q134 0 211.5 -81.5t77.5 -227.5
v-426l23 -151l149 -25v-47z" />
    <glyph glyph-name="i" unicode="i" horiz-adv-x="589" 
d="M381 1315q0 -38 -28 -66t-68 -28q-41 0 -70 26.5t-29 69.5q0 41 29 69.5t70 28.5q39 0 67.5 -29.5t28.5 -70.5zM530 0h-450v47l151 25l21 151v467l-21 154l-172 24v47l320 33l-21 -258v-467l21 -151l151 -25v-47z" />
    <glyph glyph-name="j" unicode="j" horiz-adv-x="518" 
d="M377 1315q0 -38 -28 -66t-70 -28q-40 0 -68.5 26.5t-28.5 69.5q0 41 28.5 69.5t68.5 28.5t69 -29.5t29 -70.5zM375 948l-23 -258v-649q0 -170 -67 -297t-211 -219l-31 51q199 161 199 442v672l-23 154l-172 24v47z" />
    <glyph glyph-name="k" unicode="k" horiz-adv-x="1056" 
d="M1018 0h-383v47l104 25l-123 151l-98 111l-151 151l155 148l56 57l133 154l-136 24v47h394v-47l-125 -24l-178 -154l-181 -180l277 -287l166 -151l90 -25v-47zM498 0h-426v47l149 25l23 151v979l-23 154l-172 24v47l322 33l-21 -258v-979l23 -151l125 -25v-47z" />
    <glyph glyph-name="l" unicode="l" horiz-adv-x="589" 
d="M530 0h-448v47l149 25l23 151v979l-23 154l-172 24v47l320 33l-21 -258v-979l23 -151l149 -25v-47z" />
    <glyph glyph-name="m" unicode="m" horiz-adv-x="1714" 
d="M1675 0h-438v47l137 25l23 151v389q0 116 -55.5 184t-157.5 68q-69 0 -129 -36.5t-123 -110.5v-494l22 -151l136 -25v-47h-422v47l135 25l20 151v389q0 116 -55 184t-156 68q-70 0 -129 -38t-125 -109v-494l23 -151l135 -25v-47h-434v47l149 25l23 151v467l-23 154
l-172 24v47l299 33l-20 -176q67 95 143 140.5t170 45.5q93 0 162 -46t102 -136q121 182 308 182q125 0 202.5 -84.5t77.5 -224.5v-426l21 -151l151 -25v-47z" />
    <glyph glyph-name="n" unicode="n" horiz-adv-x="1148" 
d="M1110 0h-438v47l135 25l22 151v389q0 115 -56.5 183.5t-158.5 68.5q-71 0 -121.5 -28.5t-134.5 -118.5v-494l23 -151l135 -25v-47h-434v47l149 25l23 151v467l-23 154l-172 24v47l299 33l-20 -176q67 96 144 141t173 45q126 0 204.5 -83t78.5 -226v-426l20 -151l152 -25
v-47z" />
    <glyph glyph-name="o" unicode="o" horiz-adv-x="1048" 
d="M948 457q0 -227 -118.5 -363.5t-313.5 -136.5q-191 0 -303.5 129t-112.5 354q0 239 116 378.5t323 139.5q193 0 301 -128.5t108 -372.5zM834 461q0 200 -82.5 319t-219.5 119q-146 0 -230.5 -114.5t-84.5 -321.5q0 -206 81 -325.5t220 -119.5q143 0 229.5 119t86.5 324z
" />
    <glyph glyph-name="p" unicode="p" horiz-adv-x="1095" 
d="M995 520q0 -244 -137.5 -403.5t-357.5 -159.5q-70 0 -138 16v-239l21 -152l172 -24v-47h-473v40l149 31l23 152v956l-23 154l-170 24v47l301 33l-22 -178q66 87 158.5 137.5t185.5 50.5q138 0 224.5 -121.5t86.5 -316.5zM883 481q0 178 -62.5 278.5t-177.5 100.5
q-164 0 -281 -151v-648q84 -32 170 -32q162 0 256.5 121.5t94.5 330.5z" />
    <glyph glyph-name="q" unicode="q" horiz-adv-x="1001" 
d="M1006 -489h-441v40l150 31l22 152v391q-72 -85 -146.5 -126.5t-172.5 -41.5q-139 0 -228.5 126t-89.5 323q0 256 135 404t361 148q153 0 268 -43l-20 -225v-956l22 -152l140 -24v-47zM737 205v485l-22 170q-91 25 -154 25q-93 0 -162 -36t-108.5 -99.5t-58.5 -141.5
t-19 -170q0 -171 65.5 -278t176.5 -107q72 0 147.5 40t134.5 112z" />
    <glyph glyph-name="r" unicode="r" horiz-adv-x="729" 
d="M721 946l-37 -133q-53 21 -100 21q-131 0 -226 -129v-482l23 -151l172 -25v-47h-471v47l149 25l23 151v467l-23 154l-172 24v47l299 33l-20 -188q112 201 289 201q40 0 94 -15z" />
    <glyph glyph-name="s" unicode="s" horiz-adv-x="763" 
d="M678 250q0 -121 -88.5 -206t-222.5 -85q-124 0 -256 57l-19 213h66l41 -149q88 -43 172 -43q101 0 158 47t57 133q0 21 -4 40t-9 33.5t-17.5 28.5t-20 23.5t-27 21t-27.5 16.5t-33.5 15.5t-33 13t-37 13t-35.5 12.5q-103 38 -136 57q-118 68 -118 201q0 119 83.5 197
t221.5 78q131 0 258 -58l21 -213h-68l-43 156q-95 37 -188 37q-189 0 -189 -164q0 -35 11.5 -63t26.5 -45t44.5 -33.5t49 -24t55.5 -20.5q13 -5 20 -7q124 -42 168 -67q108 -63 118 -188q1 -13 1 -27z" />
    <glyph glyph-name="t" unicode="t" horiz-adv-x="663" 
d="M629 53q-69 -52 -113 -74t-102 -22q-181 0 -181 205v688h-167v53l167 33v235l109 21v-277h242v-65h-242v-641q0 -87 28 -119.5t89 -32.5q75 0 141 43z" />
    <glyph glyph-name="u" unicode="u" horiz-adv-x="1146" 
d="M1110 0l-281 -33l23 176q-81 -101 -151 -143.5t-164 -42.5q-131 0 -207 82t-76 227v424l-23 154l-172 24v47l322 33l-21 -258v-387q0 -118 55.5 -185t157.5 -67q74 0 135.5 40t120.5 108v491l-20 154l-172 24v47l321 33l-20 -258v-467l20 -151l152 -25v-47z" />
    <glyph glyph-name="v" unicode="v" horiz-adv-x="1017" 
d="M985 868l-98 -22l-74 -156l-176 -467l-84 -264h-68l-98 264l-188 467l-86 156l-88 22v47h383v-47l-144 -22l49 -156l224 -563l204 563l39 156l-143 22v47h348v-47z" />
    <glyph glyph-name="w" unicode="w" horiz-adv-x="1521" 
d="M1497 868l-100 -22l-72 -156l-166 -467l-80 -264h-73l-99 264l-147 379l-125 -379l-82 -264h-74l-96 264l-184 467l-80 156l-94 22v47h378v-47l-139 -22l49 -156l219 -563l189 563l-76 156l-115 22v47h404v-47l-143 -22l49 -156l217 -563l198 563l41 156l-143 22v47h344
v-47z" />
    <glyph glyph-name="x" unicode="x" horiz-adv-x="1017" 
d="M967 0h-396v47l125 25l-84 151l-129 193l-123 -193l-92 -151l117 -25v-47h-330v47l103 25l127 151l166 242l-152 225l-121 154l-106 24v47h391v-47l-125 -24l88 -154l96 -143l99 143l92 156l-119 22v47h340v-47l-127 -24l-115 -154q-135 -192 -137 -194l186 -273
l119 -151l107 -25v-47z" />
    <glyph glyph-name="y" unicode="y" horiz-adv-x="1017" 
d="M989 868l-100 -22l-72 -156l-446 -1202l-267 23v51l185 28l84 144l112 264l-282 692l-86 156l-88 22v47h383v-47l-144 -22l49 -156l222 -557l200 557l41 156l-139 22v47h348v-47z" />
    <glyph glyph-name="z" unicode="z" horiz-adv-x="874" 
d="M784 225l-20 -225h-674v59l117 164l297 467l92 164h-256l-145 -23l-37 -143h-66l23 227h626v-59l-112 -166l-295 -467l-88 -162h291l145 23l39 141h63z" />
    <glyph glyph-name="braceleft" unicode="{" horiz-adv-x="567" 
d="M516 -375h-88q-99 0 -165 76t-66 209v424q0 119 -84 139l-78 23v69l78 21q84 21 84 139v424q0 133 65 208t166 75h88v-54l-70 -10q-63 -11 -103 -51.5t-40 -130.5v-481q0 -64 -24.5 -103t-61.5 -49l-86 -23l80 -20q92 -24 92 -164v-473q0 -161 143 -180l70 -10v-58z" />
    <glyph glyph-name="bar" unicode="|" horiz-adv-x="204" 
d="M141 0h-78v1434h78v-1434z" />
    <glyph glyph-name="braceright" unicode="}" horiz-adv-x="567" 
d="M532 496l-77 -23q-84 -19 -84 -139v-422q0 -134 -65.5 -209.5t-166.5 -75.5h-88v56l70 10q143 20 143 182v479q0 64 25 104t61 50l86 22l-80 21q-92 24 -92 164v473q0 77 -33.5 122.5t-109.5 57.5l-70 10v56h88q100 0 166 -75t66 -208v-426q0 -56 17.5 -91.5t66.5 -47.5
l77 -21v-69z" />
    <glyph glyph-name="asciitilde" unicode="~" 
d="M877 541q-63 -172 -203 -172q-50 0 -93 23t-94 69q-86 78 -149 78q-84 0 -129 -111l-62 31q26 78 81.5 125t119.5 47q37 0 70 -12.5t53.5 -27t58.5 -46.5q1 -1 17 -14.5t19 -15.5t17 -13t20 -14t18.5 -10.5t20.5 -9.5t19.5 -4.5t22.5 -2.5q40 0 76.5 29t54.5 81z" />
    <glyph glyph-name="exclamdown" unicode="&#xa1;" horiz-adv-x="425" 
d="M147 373l39 678h50l36 -678v-373h-125v373zM113 1346q0 39 27 68.5t71 29.5q41 0 70.5 -25.5t29.5 -72.5q0 -39 -28 -70t-72 -31q-38 0 -68 29.5t-30 71.5z" />
    <glyph glyph-name="cent" unicode="&#xa2;" horiz-adv-x="890" 
d="M805 86q-140 -109 -283 -127v-168h-65v166q-161 9 -259 139.5t-98 345.5q0 214 98 354.5t259 159.5v179h65v-177q112 -3 246 -43l23 -227h-66l-45 160q-93 37 -158 41v-840q127 3 252 84zM457 55v834q-118 -15 -184 -122.5t-66 -289.5q0 -170 65.5 -284t184.5 -138z" />
    <glyph glyph-name="sterling" unicode="&#xa3;" 
d="M940 309l-22 -309h-852v47l137 33l22 207v368h-159v50l159 26v170q2 208 117 345.5t301 137.5q77 0 145.5 -26t147.5 -86l-70 -101q-127 111 -268 111q-124 0 -194 -64t-64 -204l4 -293h287v-66h-287v-368l-22 -217h319l184 32l43 207h72z" />
    <glyph glyph-name="currency" unicode="&#xa4;" horiz-adv-x="700" 
d="M637 977q0 -174 -54.5 -313.5t-170 -232.5t-279.5 -114l-6 64q70 10 135 41.5t120 82.5t94 127t54 167q-83 -92 -213 -92q-109 0 -181.5 86t-72.5 221q0 148 85.5 248t218.5 100q112 0 191 -100t79 -285zM539 961q0 155 -51.5 242t-147.5 87q-78 0 -129 -64t-51 -173
q0 -118 51 -190t139 -72q51 0 90.5 16.5t91.5 60.5q7 75 7 93z" />
    <glyph glyph-name="yen" unicode="&#xa5;" horiz-adv-x="1189" 
d="M1174 1292l-134 -32l-137 -207l-231 -424v-47h268v-70h-268v-162h268v-71h-268l22 -199l172 -33v-47h-508v47l172 33l23 199h-268v71h268v162h-268v70h268l-270 471l-142 207l-125 32v47h459v-47l-158 -32l103 -207l211 -365l194 365l93 207l-152 32v47h408v-47z" />
    <glyph glyph-name="brokenbar" unicode="&#xa6;" horiz-adv-x="2048" 
d="M2048 682q-8 3 -29.5 5t-38.5 3h-18q-111 0 -190 -90q-51 -57 -91 -176q-9 16 -14.5 63.5t-18.5 103t-40 93.5q-26 34 -69.5 60.5t-94.5 35.5q-47 12 -55 21q-3 26 -4 73t-2.5 82.5t-7 71.5t-22 56t-44.5 20q-24 0 -39 -14.5t-15 -38.5q0 -21 12.5 -63.5t12.5 -117.5
q0 -80 -8 -92q-6 -12 -28 -16.5t-78 -26t-126 -69.5q-86 91 -120 116q-46 35 -78 35q-131 0 -172 -51q2 16 2 33q0 80 -47.5 154t-116.5 116q-66 40 -134 64t-112 24q-37 0 -45 -16q0 1 -2 8.5t-2.5 9.5t-3 8.5t-4 9t-5 7t-7.5 6t-9.5 3t-11.5 1.5q-47 0 -57 -27
q-10 -22 0 -84q0 -1 9 -64t15.5 -116t14 -131t8.5 -135q1 -14 3 -33.5t2.5 -28t-3 -17.5t-12.5 -15q-105 3 -152 -6v999h2048v-854zM563 817q0 -54 -26.5 -104.5t-67.5 -83.5q-50 -40 -82 -52.5t-82 -19.5h-26q0 48 -12 240.5t-27 238.5q21 -10 39 -12q78 -8 127 -37
q59 -32 108 -82.5t49 -87.5zM2048 -512h-2048v950q41 -9 90.5 -12t65.5 -6q-1 -20 7.5 -93t8.5 -184q0 -196 11.5 -262.5t49.5 -66.5q44 0 56.5 28.5t2.5 57.5l-9 28q0 248 -5.5 294.5t-5.5 205.5q111 15 209 70q75 43 154 145q-1 -24 13 -97.5t18 -113.5q8 -96 32 -217
q25 -130 95 -174q12 -7 66 -19t61 -12h8q23 0 36 1t31 5.5t26.5 16t8.5 30.5q0 29 -19 44t-40.5 18t-56 3.5t-46.5 2.5q-25 4 -45 51t-27.5 85t-7.5 46q-3 18 -10 52.5t-11 56.5l-10 55t-9.5 55t-7.5 49t-5.5 44.5t-2 34.5t2 27t6.5 13q24 19 72 19q38 0 91.5 -57.5
t53.5 -94.5q0 -32 -18 -53.5t-40 -30.5t-40 -24.5t-18 -36.5q0 -27 18 -41.5t35 -11.5q20 3 30 8.5t29.5 23.5t40.5 33t60 74.5t67 77.5q81 55 148 61q18 -210 28 -360q1 -17 -2 -47.5t-6 -51.5l-4 -22q0 -35 42.5 -78t105.5 -43q23 0 38 2t29.5 13t14.5 32q0 32 -11 41.5
t-27 8t-32.5 0.5t-27.5 28t-11 82q0 21 -9.5 103.5t-11.5 129.5l-6 197h45q10 -6 33.5 -17t36 -19t29 -26.5t26.5 -44.5q7 -17 19.5 -116.5t27.5 -224.5t25 -181q9 -24 80 -24q18 0 21 23t6 98.5t18 154.5q14 71 41 126t56 82.5t56 45t44 21.5l18 4q51 0 86 -9v-1087z" />
    <glyph glyph-name="section" unicode="&#xa7;" 
d="M803 23q0 -124 -88 -206.5t-228 -82.5q-118 0 -247 53l-23 213h66l39 -145q48 -24 84.5 -34.5t89.5 -10.5q100 0 158.5 46t58.5 132q0 24 -4.5 45.5t-15 38.5t-20 30.5t-28.5 26t-31.5 20.5t-37.5 18t-37.5 14.5t-40.5 14t-39 13.5q-44 15 -73.5 27t-64 33.5t-55.5 46
t-35 62.5t-14 85q0 72 28.5 124t96.5 103q-115 64 -115 199q0 120 82.5 196t220.5 76q126 0 246 -55l23 -221h-68l-37 159q-82 35 -178 37q-97 1 -147 -39t-50 -120q0 -23 5.5 -42t12 -33.5t21.5 -28t25 -21.5t33 -19t34 -16t39 -16t39 -15t43.5 -16.5t45.5 -18t41 -18.5
t40 -22.5t33 -25.5t31 -32.5t21 -38.5t15.5 -48.5t4.5 -57.5q0 -136 -103 -226q103 -64 103 -204zM717 414q0 73 -41 116.5t-154 85.5l-127 48q-88 -76 -88 -166q0 -65 33 -105t125 -74l186 -65q66 72 66 160z" />
    <glyph glyph-name="dieresis" unicode="&#xa8;" horiz-adv-x="0" 
d="M248 1272q0 -32 -20.5 -56t-59.5 -24q-32 0 -57 23t-25 57q0 33 22.5 57.5t59.5 24.5q34 0 57 -22t23 -60zM-88 1272q0 -32 -21.5 -56t-60.5 -24q-32 0 -56 23t-24 57q0 33 22 57.5t58 24.5q35 0 58.5 -22t23.5 -60z" />
    <glyph glyph-name="copyright" unicode="&#xa9;" horiz-adv-x="1665" 
d="M1546 510q0 -143 -57 -274.5t-152.5 -227.5t-228 -153.5t-277.5 -57.5q-143 0 -274 56t-227.5 150.5t-153.5 227t-57 279.5t56.5 279.5t152.5 228t227.5 151.5t275.5 56q197 0 361.5 -95.5t259 -259.5t94.5 -360zM1458 510q0 168 -84 313t-228.5 230.5t-314.5 85.5
t-313.5 -82.5t-228 -227.5t-84.5 -319q0 -169 84 -313.5t228.5 -229t313.5 -84.5q170 0 314.5 84.5t228.5 229t84 313.5zM1114 340l-18 -174q-143 -43 -260 -43q-177 0 -272 103.5t-97 289.5q-1 86 21.5 159t67.5 130t119.5 89t170.5 32q106 0 219 -35l18 -176h-65l-31 119
q-84 26 -151 26q-129 0 -196 -87.5t-67 -240.5q0 -154 72 -250t199 -96q97 0 172 33l33 121h65z" />
    <glyph glyph-name="ordfeminine" unicode="&#xaa;" horiz-adv-x="792" 
d="M739 647l-225 -29l16 148q-82 -152 -225 -152q-79 0 -130.5 54t-51.5 139q0 114 92 174q97 63 299 63v89q0 78 -36.5 121.5t-110.5 43.5q-50 0 -90 -17.5t-87 -59.5l-36 43q108 118 256 118q86 0 143 -52.5t57 -160.5v-348l17 -106l112 -17v-51zM514 829v154
q-150 0 -223 -43q-70 -42 -70 -119q0 -48 30 -84.5t77 -36.5q49 0 100 35t86 94z" />
    <glyph glyph-name="guillemotleft" unicode="&#xab;" 
d="M936 84l-43 -43l-430 422l430 420l43 -43l-324 -377zM537 84l-41 -43l-433 422l433 420l41 -43l-324 -377z" />
    <glyph glyph-name="logicalnot" unicode="&#xac;" horiz-adv-x="700" 
d="M653 952q0 -148 -83.5 -248t-217.5 -100q-116 0 -193 100.5t-77 286.5q0 273 130.5 450.5t373.5 207.5l6 -62q-48 -10 -92 -26t-96 -48.5t-92.5 -76t-74.5 -113t-49 -154.5q80 88 213 88q108 0 180 -86t72 -219zM559 915q2 114 -50.5 188.5t-139.5 74.5q-49 0 -89 -17
t-94 -63q-8 -82 -8 -92q0 -156 52.5 -242t148.5 -86q81 0 129.5 66.5t50.5 170.5z" />
    <glyph glyph-name="registered" unicode="&#xae;" horiz-adv-x="1665" 
d="M1546 510q0 -143 -57 -274.5t-152.5 -227.5t-228 -153.5t-277.5 -57.5q-143 0 -274 56t-227.5 150.5t-153.5 227t-57 279.5t56.5 279.5t152.5 228t227.5 151.5t275.5 56q197 0 361.5 -95.5t259 -259.5t94.5 -360zM1458 510q0 168 -84 313t-228.5 230.5t-314.5 85.5
t-313.5 -82.5t-228 -227.5t-84.5 -319q0 -169 84 -313.5t228.5 -229t313.5 -84.5q170 0 314.5 84.5t228.5 229t84 313.5zM1186 160h-189l-84 170l-96 176h-72v-172l17 -107l100 -20v-47h-330v47l103 20l14 107v387l-14 104l-117 21v49h324q106 0 154 -45t48 -135
q0 -134 -139 -189l111 -188l76 -109l94 -22v-47zM942 702q0 136 -166 136h-31v-275h17q180 0 180 139z" />
    <glyph glyph-name="macron" unicode="&#xaf;" horiz-adv-x="0" 
d="M272 1188h-544v74h544v-74z" />
    <glyph glyph-name="degree" unicode="&#xb0;" horiz-adv-x="612" 
d="M492 1204q0 -74 -54 -129t-131 -55q-74 0 -130 54t-56 130q0 72 55.5 129.5t130.5 57.5t130 -54.5t55 -132.5zM412 1204q0 47 -30.5 82t-74.5 35q-43 0 -74.5 -34t-31.5 -83q0 -46 28.5 -80t77.5 -34q44 0 74.5 33.5t30.5 80.5z" />
    <glyph glyph-name="plusminus" unicode="&#xb1;" horiz-adv-x="1785" 
d="M1726 0h-430v47l131 25l21 151v979l-16 137q-131 43 -236 43q-121 0 -187.5 -62.5t-62.5 -178.5l4 -226h242v-65h-242v-627l23 -151l129 -25v-47h-430v47l149 25l23 151v627h-500v-627l23 -151l129 -25v-47h-428v47l149 25l23 151v627h-174v53l174 33v154q1 104 43.5 188
t132.5 137t213 53q176 0 319 -116q108 118 287 118q89 0 151 -10t191 -41l-23 -217v-979l23 -151l149 -25v-47zM883 1262q-55 55 -132.5 86.5t-156.5 31.5q-116 0 -187 -59.5t-67 -192.5l4 -213h500v168q3 112 39 179z" />
    <glyph glyph-name="twosuperior" unicode="&#xb2;" horiz-adv-x="2048" 
d="M2048 682q-8 3 -29.5 5t-38.5 3h-18q-111 0 -190 -90q-51 -57 -91 -176q-9 16 -14.5 63.5t-18.5 103t-40 93.5q-26 34 -69.5 60.5t-94.5 35.5q-47 12 -55 21q-3 26 -4 73t-2.5 82.5t-7 71.5t-22 56t-44.5 20q-24 0 -39 -14.5t-15 -38.5q0 -21 12.5 -63.5t12.5 -117.5
q0 -80 -8 -92q-6 -12 -28 -16.5t-78 -26t-126 -69.5q-86 91 -120 116q-46 35 -78 35q-131 0 -172 -51q2 16 2 33q0 80 -47.5 154t-116.5 116q-66 40 -134 64t-112 24q-37 0 -45 -16q0 1 -2 8.5t-2.5 9.5t-3 8.5t-4 9t-5 7t-7.5 6t-9.5 3t-11.5 1.5q-47 0 -57 -27
q-10 -22 0 -84q0 -1 9 -64t15.5 -116t14 -131t8.5 -135q1 -14 3 -33.5t2.5 -28t-3 -17.5t-12.5 -15q-105 3 -152 -6v999h2048v-854zM563 817q0 -54 -26.5 -104.5t-67.5 -83.5q-50 -40 -82 -52.5t-82 -19.5h-26q0 48 -12 240.5t-27 238.5q21 -10 39 -12q78 -8 127 -37
q59 -32 108 -82.5t49 -87.5zM2048 -512h-2048v950q41 -9 90.5 -12t65.5 -6q-1 -20 7.5 -93t8.5 -184q0 -196 11.5 -262.5t49.5 -66.5q44 0 56.5 28.5t2.5 57.5l-9 28q0 248 -5.5 294.5t-5.5 205.5q111 15 209 70q75 43 154 145q-1 -24 13 -97.5t18 -113.5q8 -96 32 -217
q25 -130 95 -174q12 -7 66 -19t61 -12h8q23 0 36 1t31 5.5t26.5 16t8.5 30.5q0 29 -19 44t-40.5 18t-56 3.5t-46.5 2.5q-25 4 -45 51t-27.5 85t-7.5 46q-3 18 -10 52.5t-11 56.5l-10 55t-9.5 55t-7.5 49t-5.5 44.5t-2 34.5t2 27t6.5 13q24 19 72 19q38 0 91.5 -57.5
t53.5 -94.5q0 -32 -18 -53.5t-40 -30.5t-40 -24.5t-18 -36.5q0 -27 18 -41.5t35 -11.5q20 3 30 8.5t29.5 23.5t40.5 33t60 74.5t67 77.5q81 55 148 61q18 -210 28 -360q1 -17 -2 -47.5t-6 -51.5l-4 -22q0 -35 42.5 -78t105.5 -43q23 0 38 2t29.5 13t14.5 32q0 32 -11 41.5
t-27 8t-32.5 0.5t-27.5 28t-11 82q0 21 -9.5 103.5t-11.5 129.5l-6 197h45q10 -6 33.5 -17t36 -19t29 -26.5t26.5 -44.5q7 -17 19.5 -116.5t27.5 -224.5t25 -181q9 -24 80 -24q18 0 21 23t6 98.5t18 154.5q14 71 41 126t56 82.5t56 45t44 21.5l18 4q51 0 86 -9v-1087z" />
    <glyph glyph-name="threesuperior" unicode="&#xb3;" horiz-adv-x="2048" 
d="M2048 682q-8 3 -29.5 5t-38.5 3h-18q-111 0 -190 -90q-51 -57 -91 -176q-9 16 -14.5 63.5t-18.5 103t-40 93.5q-26 34 -69.5 60.5t-94.5 35.5q-47 12 -55 21q-3 26 -4 73t-2.5 82.5t-7 71.5t-22 56t-44.5 20q-24 0 -39 -14.5t-15 -38.5q0 -21 12.5 -63.5t12.5 -117.5
q0 -80 -8 -92q-6 -12 -28 -16.5t-78 -26t-126 -69.5q-86 91 -120 116q-46 35 -78 35q-131 0 -172 -51q2 16 2 33q0 80 -47.5 154t-116.5 116q-66 40 -134 64t-112 24q-37 0 -45 -16q0 1 -2 8.5t-2.5 9.5t-3 8.5t-4 9t-5 7t-7.5 6t-9.5 3t-11.5 1.5q-47 0 -57 -27
q-10 -22 0 -84q0 -1 9 -64t15.5 -116t14 -131t8.5 -135q1 -14 3 -33.5t2.5 -28t-3 -17.5t-12.5 -15q-105 3 -152 -6v999h2048v-854zM563 817q0 -54 -26.5 -104.5t-67.5 -83.5q-50 -40 -82 -52.5t-82 -19.5h-26q0 48 -12 240.5t-27 238.5q21 -10 39 -12q78 -8 127 -37
q59 -32 108 -82.5t49 -87.5zM2048 -512h-2048v950q41 -9 90.5 -12t65.5 -6q-1 -20 7.5 -93t8.5 -184q0 -196 11.5 -262.5t49.5 -66.5q44 0 56.5 28.5t2.5 57.5l-9 28q0 248 -5.5 294.5t-5.5 205.5q111 15 209 70q75 43 154 145q-1 -24 13 -97.5t18 -113.5q8 -96 32 -217
q25 -130 95 -174q12 -7 66 -19t61 -12h8q23 0 36 1t31 5.5t26.5 16t8.5 30.5q0 29 -19 44t-40.5 18t-56 3.5t-46.5 2.5q-25 4 -45 51t-27.5 85t-7.5 46q-3 18 -10 52.5t-11 56.5l-10 55t-9.5 55t-7.5 49t-5.5 44.5t-2 34.5t2 27t6.5 13q24 19 72 19q38 0 91.5 -57.5
t53.5 -94.5q0 -32 -18 -53.5t-40 -30.5t-40 -24.5t-18 -36.5q0 -27 18 -41.5t35 -11.5q20 3 30 8.5t29.5 23.5t40.5 33t60 74.5t67 77.5q81 55 148 61q18 -210 28 -360q1 -17 -2 -47.5t-6 -51.5l-4 -22q0 -35 42.5 -78t105.5 -43q23 0 38 2t29.5 13t14.5 32q0 32 -11 41.5
t-27 8t-32.5 0.5t-27.5 28t-11 82q0 21 -9.5 103.5t-11.5 129.5l-6 197h45q10 -6 33.5 -17t36 -19t29 -26.5t26.5 -44.5q7 -17 19.5 -116.5t27.5 -224.5t25 -181q9 -24 80 -24q18 0 21 23t6 98.5t18 154.5q14 71 41 126t56 82.5t56 45t44 21.5l18 4q51 0 86 -9v-1087z" />
    <glyph glyph-name="acute" unicode="&#xb4;" horiz-adv-x="0" 
d="M379 1421l-379 -309l-37 37l344 344z" />
    <glyph glyph-name="mu" unicode="&#xb5;" horiz-adv-x="661" 
d="M598 762l-20 -117h-488v68q74 61 119 100.5t96.5 90t79 88.5t46 81t18.5 82q0 64 -36 103.5t-104 39.5q-96 0 -190 -75l-37 43q47 53 116.5 83.5t141.5 30.5q98 0 156 -55t59 -156q2 -91 -77.5 -194t-258.5 -240h213z" />
    <glyph glyph-name="paragraph" unicode="&#xb6;" horiz-adv-x="1054" 
d="M969 1292l-172 -32l-23 -207v-1053h-110v1268h-199v-1268h-111v877q-114 0 -182 65.5t-68 167.5q0 94 67 161.5t165 67.5h633v-47z" />
    <glyph glyph-name="periodcentered" unicode="&#xb7;" horiz-adv-x="387" 
d="M295 651q0 -41 -27.5 -71.5t-74.5 -30.5q-43 0 -73 27t-30 75q0 41 29 73t74 32q41 0 71.5 -31t30.5 -74z" />
    <glyph glyph-name="cedilla" unicode="&#xb8;" horiz-adv-x="0" 
d="M254 -285q0 -87 -70 -141.5t-202 -54.5h-58v69q51 -14 90 -14q61 0 99.5 33t38.5 88q0 57 -47.5 90t-131.5 33h-10v194h72v-110h8q88 0 149.5 -53t61.5 -134z" />
    <glyph glyph-name="onesuperior" unicode="&#xb9;" horiz-adv-x="2048" 
d="M2048 682q-8 3 -29.5 5t-38.5 3h-18q-111 0 -190 -90q-51 -57 -91 -176q-9 16 -14.5 63.5t-18.5 103t-40 93.5q-26 34 -69.5 60.5t-94.5 35.5q-47 12 -55 21q-3 26 -4 73t-2.5 82.5t-7 71.5t-22 56t-44.5 20q-24 0 -39 -14.5t-15 -38.5q0 -21 12.5 -63.5t12.5 -117.5
q0 -80 -8 -92q-6 -12 -28 -16.5t-78 -26t-126 -69.5q-86 91 -120 116q-46 35 -78 35q-131 0 -172 -51q2 16 2 33q0 80 -47.5 154t-116.5 116q-66 40 -134 64t-112 24q-37 0 -45 -16q0 1 -2 8.5t-2.5 9.5t-3 8.5t-4 9t-5 7t-7.5 6t-9.5 3t-11.5 1.5q-47 0 -57 -27
q-10 -22 0 -84q0 -1 9 -64t15.5 -116t14 -131t8.5 -135q1 -14 3 -33.5t2.5 -28t-3 -17.5t-12.5 -15q-105 3 -152 -6v999h2048v-854zM563 817q0 -54 -26.5 -104.5t-67.5 -83.5q-50 -40 -82 -52.5t-82 -19.5h-26q0 48 -12 240.5t-27 238.5q21 -10 39 -12q78 -8 127 -37
q59 -32 108 -82.5t49 -87.5zM2048 -512h-2048v950q41 -9 90.5 -12t65.5 -6q-1 -20 7.5 -93t8.5 -184q0 -196 11.5 -262.5t49.5 -66.5q44 0 56.5 28.5t2.5 57.5l-9 28q0 248 -5.5 294.5t-5.5 205.5q111 15 209 70q75 43 154 145q-1 -24 13 -97.5t18 -113.5q8 -96 32 -217
q25 -130 95 -174q12 -7 66 -19t61 -12h8q23 0 36 1t31 5.5t26.5 16t8.5 30.5q0 29 -19 44t-40.5 18t-56 3.5t-46.5 2.5q-25 4 -45 51t-27.5 85t-7.5 46q-3 18 -10 52.5t-11 56.5l-10 55t-9.5 55t-7.5 49t-5.5 44.5t-2 34.5t2 27t6.5 13q24 19 72 19q38 0 91.5 -57.5
t53.5 -94.5q0 -32 -18 -53.5t-40 -30.5t-40 -24.5t-18 -36.5q0 -27 18 -41.5t35 -11.5q20 3 30 8.5t29.5 23.5t40.5 33t60 74.5t67 77.5q81 55 148 61q18 -210 28 -360q1 -17 -2 -47.5t-6 -51.5l-4 -22q0 -35 42.5 -78t105.5 -43q23 0 38 2t29.5 13t14.5 32q0 32 -11 41.5
t-27 8t-32.5 0.5t-27.5 28t-11 82q0 21 -9.5 103.5t-11.5 129.5l-6 197h45q10 -6 33.5 -17t36 -19t29 -26.5t26.5 -44.5q7 -17 19.5 -116.5t27.5 -224.5t25 -181q9 -24 80 -24q18 0 21 23t6 98.5t18 154.5q14 71 41 126t56 82.5t56 45t44 21.5l18 4q51 0 86 -9v-1087z" />
    <glyph glyph-name="ordmasculine" unicode="&#xba;" horiz-adv-x="874" 
d="M768 995q0 -170 -91 -276.5t-245 -106.5q-148 0 -234.5 98t-86.5 273q0 185 89.5 291t250.5 106q148 0 232.5 -99t84.5 -286zM659 999q0 146 -58.5 233t-156.5 87q-103 0 -163.5 -82.5t-61.5 -235.5q-2 -148 55 -236.5t160 -88.5q101 0 163 87t62 236z" />
    <glyph glyph-name="guillemotright" unicode="&#xbb;" 
d="M958 463l-432 -422l-41 43l324 379l-324 377l41 43zM561 463l-430 -422l-41 43l324 379l-324 377l41 43z" />
    <glyph glyph-name="onequarter" unicode="&#xbc;" horiz-adv-x="2048" 
d="M2048 682q-8 3 -29.5 5t-38.5 3h-18q-111 0 -190 -90q-51 -57 -91 -176q-9 16 -14.5 63.5t-18.5 103t-40 93.5q-26 34 -69.5 60.5t-94.5 35.5q-47 12 -55 21q-3 26 -4 73t-2.5 82.5t-7 71.5t-22 56t-44.5 20q-24 0 -39 -14.5t-15 -38.5q0 -21 12.5 -63.5t12.5 -117.5
q0 -80 -8 -92q-6 -12 -28 -16.5t-78 -26t-126 -69.5q-86 91 -120 116q-46 35 -78 35q-131 0 -172 -51q2 16 2 33q0 80 -47.5 154t-116.5 116q-66 40 -134 64t-112 24q-37 0 -45 -16q0 1 -2 8.5t-2.5 9.5t-3 8.5t-4 9t-5 7t-7.5 6t-9.5 3t-11.5 1.5q-47 0 -57 -27
q-10 -22 0 -84q0 -1 9 -64t15.5 -116t14 -131t8.5 -135q1 -14 3 -33.5t2.5 -28t-3 -17.5t-12.5 -15q-105 3 -152 -6v999h2048v-854zM563 817q0 -54 -26.5 -104.5t-67.5 -83.5q-50 -40 -82 -52.5t-82 -19.5h-26q0 48 -12 240.5t-27 238.5q21 -10 39 -12q78 -8 127 -37
q59 -32 108 -82.5t49 -87.5zM2048 -512h-2048v950q41 -9 90.5 -12t65.5 -6q-1 -20 7.5 -93t8.5 -184q0 -196 11.5 -262.5t49.5 -66.5q44 0 56.5 28.5t2.5 57.5l-9 28q0 248 -5.5 294.5t-5.5 205.5q111 15 209 70q75 43 154 145q-1 -24 13 -97.5t18 -113.5q8 -96 32 -217
q25 -130 95 -174q12 -7 66 -19t61 -12h8q23 0 36 1t31 5.5t26.5 16t8.5 30.5q0 29 -19 44t-40.5 18t-56 3.5t-46.5 2.5q-25 4 -45 51t-27.5 85t-7.5 46q-3 18 -10 52.5t-11 56.5l-10 55t-9.5 55t-7.5 49t-5.5 44.5t-2 34.5t2 27t6.5 13q24 19 72 19q38 0 91.5 -57.5
t53.5 -94.5q0 -32 -18 -53.5t-40 -30.5t-40 -24.5t-18 -36.5q0 -27 18 -41.5t35 -11.5q20 3 30 8.5t29.5 23.5t40.5 33t60 74.5t67 77.5q81 55 148 61q18 -210 28 -360q1 -17 -2 -47.5t-6 -51.5l-4 -22q0 -35 42.5 -78t105.5 -43q23 0 38 2t29.5 13t14.5 32q0 32 -11 41.5
t-27 8t-32.5 0.5t-27.5 28t-11 82q0 21 -9.5 103.5t-11.5 129.5l-6 197h45q10 -6 33.5 -17t36 -19t29 -26.5t26.5 -44.5q7 -17 19.5 -116.5t27.5 -224.5t25 -181q9 -24 80 -24q18 0 21 23t6 98.5t18 154.5q14 71 41 126t56 82.5t56 45t44 21.5l18 4q51 0 86 -9v-1087z" />
    <glyph glyph-name="onehalf" unicode="&#xbd;" horiz-adv-x="2048" 
d="M2048 682q-8 3 -29.5 5t-38.5 3h-18q-111 0 -190 -90q-51 -57 -91 -176q-9 16 -14.5 63.5t-18.5 103t-40 93.5q-26 34 -69.5 60.5t-94.5 35.5q-47 12 -55 21q-3 26 -4 73t-2.5 82.5t-7 71.5t-22 56t-44.5 20q-24 0 -39 -14.5t-15 -38.5q0 -21 12.5 -63.5t12.5 -117.5
q0 -80 -8 -92q-6 -12 -28 -16.5t-78 -26t-126 -69.5q-86 91 -120 116q-46 35 -78 35q-131 0 -172 -51q2 16 2 33q0 80 -47.5 154t-116.5 116q-66 40 -134 64t-112 24q-37 0 -45 -16q0 1 -2 8.5t-2.5 9.5t-3 8.5t-4 9t-5 7t-7.5 6t-9.5 3t-11.5 1.5q-47 0 -57 -27
q-10 -22 0 -84q0 -1 9 -64t15.5 -116t14 -131t8.5 -135q1 -14 3 -33.5t2.5 -28t-3 -17.5t-12.5 -15q-105 3 -152 -6v999h2048v-854zM563 817q0 -54 -26.5 -104.5t-67.5 -83.5q-50 -40 -82 -52.5t-82 -19.5h-26q0 48 -12 240.5t-27 238.5q21 -10 39 -12q78 -8 127 -37
q59 -32 108 -82.5t49 -87.5zM2048 -512h-2048v950q41 -9 90.5 -12t65.5 -6q-1 -20 7.5 -93t8.5 -184q0 -196 11.5 -262.5t49.5 -66.5q44 0 56.5 28.5t2.5 57.5l-9 28q0 248 -5.5 294.5t-5.5 205.5q111 15 209 70q75 43 154 145q-1 -24 13 -97.5t18 -113.5q8 -96 32 -217
q25 -130 95 -174q12 -7 66 -19t61 -12h8q23 0 36 1t31 5.5t26.5 16t8.5 30.5q0 29 -19 44t-40.5 18t-56 3.5t-46.5 2.5q-25 4 -45 51t-27.5 85t-7.5 46q-3 18 -10 52.5t-11 56.5l-10 55t-9.5 55t-7.5 49t-5.5 44.5t-2 34.5t2 27t6.5 13q24 19 72 19q38 0 91.5 -57.5
t53.5 -94.5q0 -32 -18 -53.5t-40 -30.5t-40 -24.5t-18 -36.5q0 -27 18 -41.5t35 -11.5q20 3 30 8.5t29.5 23.5t40.5 33t60 74.5t67 77.5q81 55 148 61q18 -210 28 -360q1 -17 -2 -47.5t-6 -51.5l-4 -22q0 -35 42.5 -78t105.5 -43q23 0 38 2t29.5 13t14.5 32q0 32 -11 41.5
t-27 8t-32.5 0.5t-27.5 28t-11 82q0 21 -9.5 103.5t-11.5 129.5l-6 197h45q10 -6 33.5 -17t36 -19t29 -26.5t26.5 -44.5q7 -17 19.5 -116.5t27.5 -224.5t25 -181q9 -24 80 -24q18 0 21 23t6 98.5t18 154.5q14 71 41 126t56 82.5t56 45t44 21.5l18 4q51 0 86 -9v-1087z" />
    <glyph glyph-name="threequarters" unicode="&#xbe;" horiz-adv-x="2048" 
d="M2048 682q-8 3 -29.5 5t-38.5 3h-18q-111 0 -190 -90q-51 -57 -91 -176q-9 16 -14.5 63.5t-18.5 103t-40 93.5q-26 34 -69.5 60.5t-94.5 35.5q-47 12 -55 21q-3 26 -4 73t-2.5 82.5t-7 71.5t-22 56t-44.5 20q-24 0 -39 -14.5t-15 -38.5q0 -21 12.5 -63.5t12.5 -117.5
q0 -80 -8 -92q-6 -12 -28 -16.5t-78 -26t-126 -69.5q-86 91 -120 116q-46 35 -78 35q-131 0 -172 -51q2 16 2 33q0 80 -47.5 154t-116.5 116q-66 40 -134 64t-112 24q-37 0 -45 -16q0 1 -2 8.5t-2.5 9.5t-3 8.5t-4 9t-5 7t-7.5 6t-9.5 3t-11.5 1.5q-47 0 -57 -27
q-10 -22 0 -84q0 -1 9 -64t15.5 -116t14 -131t8.5 -135q1 -14 3 -33.5t2.5 -28t-3 -17.5t-12.5 -15q-105 3 -152 -6v999h2048v-854zM563 817q0 -54 -26.5 -104.5t-67.5 -83.5q-50 -40 -82 -52.5t-82 -19.5h-26q0 48 -12 240.5t-27 238.5q21 -10 39 -12q78 -8 127 -37
q59 -32 108 -82.5t49 -87.5zM2048 -512h-2048v950q41 -9 90.5 -12t65.5 -6q-1 -20 7.5 -93t8.5 -184q0 -196 11.5 -262.5t49.5 -66.5q44 0 56.5 28.5t2.5 57.5l-9 28q0 248 -5.5 294.5t-5.5 205.5q111 15 209 70q75 43 154 145q-1 -24 13 -97.5t18 -113.5q8 -96 32 -217
q25 -130 95 -174q12 -7 66 -19t61 -12h8q23 0 36 1t31 5.5t26.5 16t8.5 30.5q0 29 -19 44t-40.5 18t-56 3.5t-46.5 2.5q-25 4 -45 51t-27.5 85t-7.5 46q-3 18 -10 52.5t-11 56.5l-10 55t-9.5 55t-7.5 49t-5.5 44.5t-2 34.5t2 27t6.5 13q24 19 72 19q38 0 91.5 -57.5
t53.5 -94.5q0 -32 -18 -53.5t-40 -30.5t-40 -24.5t-18 -36.5q0 -27 18 -41.5t35 -11.5q20 3 30 8.5t29.5 23.5t40.5 33t60 74.5t67 77.5q81 55 148 61q18 -210 28 -360q1 -17 -2 -47.5t-6 -51.5l-4 -22q0 -35 42.5 -78t105.5 -43q23 0 38 2t29.5 13t14.5 32q0 32 -11 41.5
t-27 8t-32.5 0.5t-27.5 28t-11 82q0 21 -9.5 103.5t-11.5 129.5l-6 197h45q10 -6 33.5 -17t36 -19t29 -26.5t26.5 -44.5q7 -17 19.5 -116.5t27.5 -224.5t25 -181q9 -24 80 -24q18 0 21 23t6 98.5t18 154.5q14 71 41 126t56 82.5t56 45t44 21.5l18 4q51 0 86 -9v-1087z" />
    <glyph glyph-name="questiondown" unicode="&#xbf;" horiz-adv-x="819" 
d="M61 270q0 214 172 371q156 147 156 375h72q0 -151 -42.5 -245t-111.5 -165q-73 -73 -113 -142t-40 -155q0 -117 74.5 -186.5t203.5 -69.5q67 0 137.5 30t128.5 87l43 -43q-68 -77 -162.5 -122.5t-187.5 -45.5q-140 0 -235 87t-95 224zM324 1309q0 38 26.5 68t71.5 30
q41 0 70.5 -25.5t29.5 -72.5q0 -39 -28 -70t-72 -31q-38 0 -68 29.5t-30 71.5z" />
    <glyph glyph-name="Agrave" unicode="&#xc0;" horiz-adv-x="1376" 
d="M1360 0h-481v47l159 33l-55 207l-90 260h-442l-99 -260l-53 -207l170 -33v-47h-453v47l170 33l90 207l396 1087h57l383 -1087l88 -207l160 -33v-47zM868 616l-194 562l-201 -562h395zM725 1569l-37 -37l-379 309l72 72z" />
    <glyph glyph-name="Aacute" unicode="&#xc1;" horiz-adv-x="1376" 
d="M1360 0h-481v47l159 33l-55 207l-90 260h-442l-99 -260l-53 -207l170 -33v-47h-453v47l170 33l90 207l396 1087h57l383 -1087l88 -207l160 -33v-47zM868 616l-194 562l-201 -562h395zM1075 1841l-379 -309l-37 37l344 344z" />
    <glyph glyph-name="Acircumflex" unicode="&#xc2;" horiz-adv-x="1376" 
d="M1360 0h-481v47l159 33l-55 207l-90 260h-442l-99 -260l-53 -207l170 -33v-47h-453v47l170 33l90 207l396 1087h57l383 -1087l88 -207l160 -33v-47zM868 616l-194 562l-201 -562h395zM966 1567l-36 -37l-230 186l-233 -186l-37 37l270 268z" />
    <glyph glyph-name="Atilde" unicode="&#xc3;" horiz-adv-x="1376" 
d="M1360 0h-481v47l159 33l-55 207l-90 260h-442l-99 -260l-53 -207l170 -33v-47h-453v47l170 33l90 207l396 1087h57l383 -1087l88 -207l160 -33v-47zM868 616l-194 562l-201 -562h395zM999 1694q-54 -146 -170 -146q-39 0 -74 19.5t-85 60.5q-72 64 -119 64
q-79 0 -109 -90l-51 24q21 66 65 106t103 40q29 0 59 -13.5t47 -26t54 -42.5q3 -3 15.5 -13.5t16.5 -13.5t14.5 -11t16.5 -10.5t16 -6.5t19.5 -5.5t20.5 -1.5q34 0 65 24t45 66z" />
    <glyph glyph-name="Adieresis" unicode="&#xc4;" horiz-adv-x="1376" 
d="M1360 0h-481v47l159 33l-55 207l-90 260h-442l-99 -260l-53 -207l170 -33v-47h-453v47l170 33l90 207l396 1087h57l383 -1087l88 -207l160 -33v-47zM868 616l-194 562l-201 -562h395zM942 1692q0 -32 -20.5 -56t-59.5 -24q-32 0 -57 23t-25 57q0 33 22.5 57.5t59.5 24.5
q34 0 57 -22t23 -60zM606 1692q0 -32 -21.5 -56t-60.5 -24q-32 0 -56 23t-24 57q0 33 22 57.5t58 24.5q35 0 58.5 -22t23.5 -60z" />
    <glyph glyph-name="Aring" unicode="&#xc5;" horiz-adv-x="1376" 
d="M1360 0h-481v47l159 33l-55 207l-90 260h-442l-99 -260l-53 -207l170 -33v-47h-453v47l170 33l90 207l396 1087h57l383 -1087l88 -207l160 -33v-47zM868 616l-194 562l-201 -562h395zM844 1655q0 -62 -43 -104t-111 -42q-64 0 -108.5 41.5t-44.5 104.5q0 62 43.5 102.5
t109.5 40.5q63 0 108.5 -39.5t45.5 -103.5zM758 1655q0 39 -17 63.5t-51 24.5q-31 0 -50 -22.5t-19 -65.5q0 -42 18 -65t51 -23t50.5 19.5t17.5 68.5z" />
    <glyph glyph-name="AE" unicode="&#xc6;" horiz-adv-x="1798" 
d="M1731 309l-23 -309h-948v47l170 33l22 207v260h-407l-146 -254l-108 -213l166 -33v-47h-441v47l154 33l135 207l582 973l-131 32v47h917l21 -309h-70l-45 205l-197 33h-311v-547h178l170 22l23 172h59v-458h-59l-23 174l-170 20h-178v-364l21 -183l172 -32h170l182 32
l43 205h72zM952 616v619l-366 -619h366z" />
    <glyph glyph-name="Ccedilla" unicode="&#xc7;" horiz-adv-x="1296" 
d="M1212 307l-20 -299q-15 -2 -70 -11.5t-79 -13t-72 -9t-95.5 -7.5t-103.5 -2v-76h6q88 0 150.5 -53t62.5 -133q0 -86 -71.5 -140.5t-202.5 -54.5h-58v70q62 -16 91 -16q60 0 98.5 33.5t38.5 87.5q0 59 -46 90.5t-132 31.5h-9v162q-194 14 -329.5 107t-202 247t-66.5 361
q0 118 25.5 220.5t80 189t134 148t193 96t251.5 34.5q184 0 385 -43l23 -299h-82l-45 236q-127 43 -299 43q-254 0 -394.5 -156t-140.5 -444q0 -302 150.5 -490t402.5 -188q74 0 157 15t144 42l46 221h79z" />
    <glyph glyph-name="Egrave" unicode="&#xc8;" horiz-adv-x="1105" 
d="M1038 309l-22 -309h-950v47l174 33l20 207v766l-20 207l-174 32v47h913l22 -338h-71l-43 234l-195 33h-313v-547h178l172 22l21 172h59v-458h-59l-21 174l-172 20h-178v-364l22 -183l170 -32h170l181 32l45 205h71zM606 1569l-37 -37l-379 309l72 72z" />
    <glyph glyph-name="Eacute" unicode="&#xc9;" horiz-adv-x="1105" 
d="M1038 309l-22 -309h-950v47l174 33l20 207v766l-20 207l-174 32v47h913l22 -338h-71l-43 234l-195 33h-313v-547h178l172 22l21 172h59v-458h-59l-21 174l-172 20h-178v-364l22 -183l170 -32h170l181 32l45 205h71zM950 1841l-379 -309l-37 37l344 344z" />
    <glyph glyph-name="Ecircumflex" unicode="&#xca;" horiz-adv-x="1105" 
d="M1038 309l-22 -309h-950v47l174 33l20 207v766l-20 207l-174 32v47h913l22 -338h-71l-43 234l-195 33h-313v-547h178l172 22l21 172h59v-458h-59l-21 174l-172 20h-178v-364l22 -183l170 -32h170l181 32l45 205h71zM831 1567l-36 -37l-230 186l-233 -186l-37 37l270 268z
" />
    <glyph glyph-name="Edieresis" unicode="&#xcb;" horiz-adv-x="1105" 
d="M1038 309l-22 -309h-950v47l174 33l20 207v766l-20 207l-174 32v47h913l22 -338h-71l-43 234l-195 33h-313v-547h178l172 22l21 172h59v-458h-59l-21 174l-172 20h-178v-364l22 -183l170 -32h170l181 32l45 205h71zM823 1692q0 -32 -20.5 -56t-59.5 -24q-32 0 -57 23
t-25 57q0 33 22.5 57.5t59.5 24.5q34 0 57 -22t23 -60zM487 1692q0 -32 -21.5 -56t-60.5 -24q-32 0 -56 23t-24 57q0 33 22 57.5t58 24.5q35 0 58.5 -22t23.5 -60z" />
    <glyph glyph-name="Igrave" unicode="&#xcc;" horiz-adv-x="638" 
d="M573 0h-507v47l174 33l20 207v766l-20 207l-174 32v47h507v-47l-172 -32l-22 -207v-766l22 -207l172 -33v-47zM377 1569l-37 -37l-379 309l72 72z" />
    <glyph glyph-name="Iacute" unicode="&#xcd;" horiz-adv-x="638" 
d="M573 0h-507v47l174 33l20 207v766l-20 207l-174 32v47h507v-47l-172 -32l-22 -207v-766l22 -207l172 -33v-47zM698 1841l-379 -309l-37 37l344 344z" />
    <glyph glyph-name="Icircumflex" unicode="&#xce;" horiz-adv-x="638" 
d="M573 0h-507v47l174 33l20 207v766l-20 207l-174 32v47h507v-47l-172 -32l-22 -207v-766l22 -207l172 -33v-47zM590 1569l-37 -37l-229 186l-234 -186l-37 37l271 268z" />
    <glyph glyph-name="Idieresis" unicode="&#xcf;" horiz-adv-x="638" 
d="M543 1692q0 -34 -20.5 -58t-59.5 -24q-33 0 -57.5 23t-24.5 59q0 33 22.5 57.5t59.5 24.5q33 0 56.5 -22.5t23.5 -59.5zM264 1692q0 -34 -20.5 -58t-59.5 -24q-33 0 -57.5 23t-24.5 59q0 33 22 57.5t60 24.5q33 0 56.5 -22.5t23.5 -59.5zM573 0h-507v47l174 33l20 207
v766l-20 207l-174 32v47h507v-47l-172 -32l-22 -207v-766l22 -207l172 -33v-47z" />
    <glyph glyph-name="Eth" unicode="&#xd0;" horiz-adv-x="1425" 
d="M1323 737q0 -162 -43.5 -295t-130.5 -232.5t-227 -154.5t-322 -55h-534v47l174 33l20 207v358h-215v74h215v334l-20 207l-174 32v47h671q150 0 264 -44.5t183.5 -126t104 -189.5t34.5 -242zM1200 690q0 580 -596 580h-225v-551h227v-74h-227v-358l16 -181
q128 -32 260 -32q174 0 299 83.5t185.5 221t60.5 311.5z" />
    <glyph glyph-name="Ntilde" unicode="&#xd1;" horiz-adv-x="1456" 
d="M1391 1292l-172 -32l-21 -207v-1088h-82l-192 322l-592 891v-891l22 -207l172 -33v-47h-460v47l174 33l20 207v766l-20 207l-174 32v47h313l172 -286l575 -867v867l-22 207l-172 32v47h459v-47zM1020 1694q-54 -146 -170 -146q-39 0 -74.5 19.5t-85.5 60.5
q-72 64 -118 64q-79 0 -109 -90l-51 24q21 66 65 106t103 40q29 0 59 -13.5t47 -26t54 -42.5q3 -2 18 -15.5t18.5 -16t16.5 -11.5t20.5 -11t19.5 -5t25 -3q34 0 65.5 24t45.5 66z" />
    <glyph glyph-name="Ograve" unicode="&#xd2;" horiz-adv-x="1415" 
d="M1313 682q0 -161 -39 -293t-116 -229t-197.5 -150t-276.5 -53q-150 0 -262 50.5t-181.5 145t-104 224.5t-34.5 295q0 329 164 520.5t467 191.5q274 0 427 -188t153 -514zM1180 657q0 201 -50.5 349t-154.5 232.5t-252 84.5q-227 0 -358.5 -168.5t-131.5 -472.5
q0 -149 27.5 -268t84 -209.5t150.5 -139.5t220 -49q203 0 334 173.5t131 467.5zM746 1569l-37 -37l-379 309l72 72z" />
    <glyph glyph-name="Oacute" unicode="&#xd3;" horiz-adv-x="1415" 
d="M1313 682q0 -161 -39 -293t-116 -229t-197.5 -150t-276.5 -53q-150 0 -262 50.5t-181.5 145t-104 224.5t-34.5 295q0 329 164 520.5t467 191.5q274 0 427 -188t153 -514zM1180 657q0 201 -50.5 349t-154.5 232.5t-252 84.5q-227 0 -358.5 -168.5t-131.5 -472.5
q0 -149 27.5 -268t84 -209.5t150.5 -139.5t220 -49q203 0 334 173.5t131 467.5zM1088 1841l-379 -309l-37 37l344 344z" />
    <glyph glyph-name="Ocircumflex" unicode="&#xd4;" horiz-adv-x="1415" 
d="M1313 682q0 -161 -39 -293t-116 -229t-197.5 -150t-276.5 -53q-150 0 -262 50.5t-181.5 145t-104 224.5t-34.5 295q0 329 164 520.5t467 191.5q274 0 427 -188t153 -514zM1180 657q0 201 -50.5 349t-154.5 232.5t-252 84.5q-227 0 -358.5 -168.5t-131.5 -472.5
q0 -149 27.5 -268t84 -209.5t150.5 -139.5t220 -49q203 0 334 173.5t131 467.5zM971 1567l-37 -37l-229 186l-234 -186l-37 37l271 268z" />
    <glyph glyph-name="Otilde" unicode="&#xd5;" horiz-adv-x="1415" 
d="M1313 682q0 -161 -39 -293t-116 -229t-197.5 -150t-276.5 -53q-150 0 -262 50.5t-181.5 145t-104 224.5t-34.5 295q0 329 164 520.5t467 191.5q274 0 427 -188t153 -514zM1180 657q0 201 -50.5 349t-154.5 232.5t-252 84.5q-227 0 -358.5 -168.5t-131.5 -472.5
q0 -149 27.5 -268t84 -209.5t150.5 -139.5t220 -49q203 0 334 173.5t131 467.5zM995 1694q-54 -146 -170 -146q-39 0 -74.5 19.5t-85.5 60.5q-72 64 -118 64q-79 0 -109 -90l-51 24q21 66 65 106t103 40q29 0 59 -13.5t47 -26t54 -42.5q3 -2 18 -15.5t18.5 -16t16.5 -11.5
t20.5 -11t19.5 -5t25 -3q34 0 65.5 24t45.5 66z" />
    <glyph glyph-name="Odieresis" unicode="&#xd6;" horiz-adv-x="1415" 
d="M1313 682q0 -161 -39 -293t-116 -229t-197.5 -150t-276.5 -53q-150 0 -262 50.5t-181.5 145t-104 224.5t-34.5 295q0 329 164 520.5t467 191.5q274 0 427 -188t153 -514zM1180 657q0 201 -50.5 349t-154.5 232.5t-252 84.5q-227 0 -358.5 -168.5t-131.5 -472.5
q0 -149 27.5 -268t84 -209.5t150.5 -139.5t220 -49q203 0 334 173.5t131 467.5zM963 1692q0 -32 -20.5 -56t-59.5 -24q-32 0 -57 23t-25 57q0 33 22.5 57.5t59.5 24.5q34 0 57 -22t23 -60zM627 1692q0 -32 -21.5 -56t-60.5 -24q-32 0 -56 23t-24 57q0 33 22 57.5t58 24.5
q35 0 58.5 -22t23.5 -60z" />
    <glyph glyph-name="multiply" unicode="&#xd7;" horiz-adv-x="2048" 
d="M2048 682q-8 3 -29.5 5t-38.5 3h-18q-111 0 -190 -90q-51 -57 -91 -176q-9 16 -14.5 63.5t-18.5 103t-40 93.5q-26 34 -69.5 60.5t-94.5 35.5q-47 12 -55 21q-3 26 -4 73t-2.5 82.5t-7 71.5t-22 56t-44.5 20q-24 0 -39 -14.5t-15 -38.5q0 -21 12.5 -63.5t12.5 -117.5
q0 -80 -8 -92q-6 -12 -28 -16.5t-78 -26t-126 -69.5q-86 91 -120 116q-46 35 -78 35q-131 0 -172 -51q2 16 2 33q0 80 -47.5 154t-116.5 116q-66 40 -134 64t-112 24q-37 0 -45 -16q0 1 -2 8.5t-2.5 9.5t-3 8.5t-4 9t-5 7t-7.5 6t-9.5 3t-11.5 1.5q-47 0 -57 -27
q-10 -22 0 -84q0 -1 9 -64t15.5 -116t14 -131t8.5 -135q1 -14 3 -33.5t2.5 -28t-3 -17.5t-12.5 -15q-105 3 -152 -6v999h2048v-854zM563 817q0 -54 -26.5 -104.5t-67.5 -83.5q-50 -40 -82 -52.5t-82 -19.5h-26q0 48 -12 240.5t-27 238.5q21 -10 39 -12q78 -8 127 -37
q59 -32 108 -82.5t49 -87.5zM2048 -512h-2048v950q41 -9 90.5 -12t65.5 -6q-1 -20 7.5 -93t8.5 -184q0 -196 11.5 -262.5t49.5 -66.5q44 0 56.5 28.5t2.5 57.5l-9 28q0 248 -5.5 294.5t-5.5 205.5q111 15 209 70q75 43 154 145q-1 -24 13 -97.5t18 -113.5q8 -96 32 -217
q25 -130 95 -174q12 -7 66 -19t61 -12h8q23 0 36 1t31 5.5t26.5 16t8.5 30.5q0 29 -19 44t-40.5 18t-56 3.5t-46.5 2.5q-25 4 -45 51t-27.5 85t-7.5 46q-3 18 -10 52.5t-11 56.5l-10 55t-9.5 55t-7.5 49t-5.5 44.5t-2 34.5t2 27t6.5 13q24 19 72 19q38 0 91.5 -57.5
t53.5 -94.5q0 -32 -18 -53.5t-40 -30.5t-40 -24.5t-18 -36.5q0 -27 18 -41.5t35 -11.5q20 3 30 8.5t29.5 23.5t40.5 33t60 74.5t67 77.5q81 55 148 61q18 -210 28 -360q1 -17 -2 -47.5t-6 -51.5l-4 -22q0 -35 42.5 -78t105.5 -43q23 0 38 2t29.5 13t14.5 32q0 32 -11 41.5
t-27 8t-32.5 0.5t-27.5 28t-11 82q0 21 -9.5 103.5t-11.5 129.5l-6 197h45q10 -6 33.5 -17t36 -19t29 -26.5t26.5 -44.5q7 -17 19.5 -116.5t27.5 -224.5t25 -181q9 -24 80 -24q18 0 21 23t6 98.5t18 154.5q14 71 41 126t56 82.5t56 45t44 21.5l18 4q51 0 86 -9v-1087z" />
    <glyph glyph-name="Oslash" unicode="&#xd8;" horiz-adv-x="1415" 
d="M1313 682q0 -161 -39 -293t-116 -229t-197.5 -150t-276.5 -53q-99 0 -192 27l-80 -211l-70 24l80 211q-161 75 -240.5 245.5t-79.5 418.5q0 329 164 520.5t467 191.5q106 0 195 -30l86 229l71 -24l-88 -234q152 -75 234 -241.5t82 -401.5zM1180 657q0 206 -54 357.5
t-159 230.5q-449 -1190 -449 -1192q88 -37 197 -37q203 0 334 173.5t131 467.5zM903 1286q-85 37 -180 37q-227 0 -358.5 -168.5t-131.5 -472.5q0 -434 220 -590z" />
    <glyph glyph-name="Ugrave" unicode="&#xd9;" horiz-adv-x="1447" 
d="M1405 1292l-172 -32l-23 -207v-570q0 -275 -128.5 -402.5t-374.5 -127.5q-228 0 -349.5 113.5t-121.5 343.5v643l-21 207l-172 32v47h506v-47l-172 -32l-23 -207v-656q0 -176 97.5 -276.5t277.5 -100.5q87 0 156.5 23t126 72.5t87.5 138t31 209.5v590l-20 207l-172 32v47
h467v-47zM774 1569l-37 -37l-379 309l72 72z" />
    <glyph glyph-name="Uacute" unicode="&#xda;" horiz-adv-x="1447" 
d="M1405 1292l-172 -32l-23 -207v-570q0 -275 -128.5 -402.5t-374.5 -127.5q-228 0 -349.5 113.5t-121.5 343.5v643l-21 207l-172 32v47h506v-47l-172 -32l-23 -207v-656q0 -176 97.5 -276.5t277.5 -100.5q87 0 156.5 23t126 72.5t87.5 138t31 209.5v590l-20 207l-172 32v47
h467v-47zM1116 1841l-379 -309l-37 37l344 344z" />
    <glyph glyph-name="Ucircumflex" unicode="&#xdb;" horiz-adv-x="1447" 
d="M1405 1292l-172 -32l-23 -207v-570q0 -275 -128.5 -402.5t-374.5 -127.5q-228 0 -349.5 113.5t-121.5 343.5v643l-21 207l-172 32v47h506v-47l-172 -32l-23 -207v-656q0 -176 97.5 -276.5t277.5 -100.5q87 0 156.5 23t126 72.5t87.5 138t31 209.5v590l-20 207l-172 32v47
h467v-47zM995 1567l-37 -37l-229 186l-233 -186l-37 37l270 268z" />
    <glyph glyph-name="Udieresis" unicode="&#xdc;" horiz-adv-x="1447" 
d="M1405 1292l-172 -32l-23 -207v-570q0 -275 -128.5 -402.5t-374.5 -127.5q-228 0 -349.5 113.5t-121.5 343.5v643l-21 207l-172 32v47h506v-47l-172 -32l-23 -207v-656q0 -176 97.5 -276.5t277.5 -100.5q87 0 156.5 23t126 72.5t87.5 138t31 209.5v590l-20 207l-172 32v47
h467v-47zM989 1692q0 -32 -20.5 -56t-59.5 -24q-32 0 -57 23t-25 57q0 33 22.5 57.5t59.5 24.5q34 0 57 -22t23 -60zM653 1692q0 -32 -21.5 -56t-60.5 -24q-32 0 -55.5 23t-23.5 57q0 33 21.5 57.5t57.5 24.5q35 0 58.5 -22t23.5 -60z" />
    <glyph glyph-name="Yacute" unicode="&#xdd;" horiz-adv-x="1189" 
d="M1174 1292l-134 -32l-137 -207l-231 -424v-342l20 -207l174 -33v-47h-508v47l172 33l23 207v299l-270 467l-142 207l-125 32v47h457v-47l-156 -32l103 -207l211 -365l194 365l93 207l-152 32v47h408v-47zM965 1841l-379 -309l-37 37l344 344z" />
    <glyph glyph-name="Thorn" unicode="&#xde;" horiz-adv-x="1048" 
d="M950 807q0 -78 -28 -146t-85 -124.5t-156 -89.5t-230 -33h-72v-127l22 -207l193 -33v-47h-528v47l174 33l20 207v766l-20 207l-174 32v47h333l-20 -215h227q165 0 254.5 -85t89.5 -232zM827 788q0 134 -83 200.5t-259 66.5h-106v-557q10 -2 25.5 -5t21 -4t15.5 -3
t17.5 -2t18.5 -0.5t27 -0.5q149 -3 236 78.5t87 226.5z" />
    <glyph glyph-name="germandbls" unicode="&#xdf;" horiz-adv-x="1099" 
d="M1036 233q0 -112 -88.5 -190t-220.5 -78q-111 0 -221 55l-14 203h65l31 -141q82 -39 168 -39q83 0 130.5 42t47.5 120q0 28 -11 54.5t-23.5 45t-41 41.5t-45 34.5t-54 35.5t-50.5 33q-102 64 -153.5 127.5t-51.5 142.5q0 35 9 66.5t20 53t36 50t40.5 43t49.5 45.5
q57 52 85 101.5t28 113.5q0 77 -56.5 128.5t-152.5 51.5q-219 0 -219 -233v-1139h-276v47l149 25l23 151v627h-174v53l174 33v176q3 109 58 189.5t137 118.5t179 38q117 0 194 -64.5t77 -170.5q0 -73 -36 -132t-108 -126q-64 -59 -96.5 -109t-32.5 -106q0 -23 5.5 -43.5
t11.5 -36t21.5 -33t24.5 -27.5t32.5 -27t34 -24t39 -25t38.5 -24q39 -25 57 -37t49.5 -36t46.5 -42t32.5 -44t24.5 -55t7 -63z" />
    <glyph glyph-name="agrave" unicode="&#xe0;" horiz-adv-x="929" 
d="M893 0l-279 -33l27 223q-60 -111 -135.5 -171t-179.5 -60q-101 0 -167.5 67t-66.5 179q0 127 113 215q113 90 411 90v149q0 100 -56 156.5t-152 56.5q-125 0 -234 -100l-37 41q135 148 328 148q114 0 186 -66.5t72 -208.5v-463l22 -151l148 -25v-47zM616 231v220
q-211 0 -313 -60q-98 -55 -98 -168q0 -70 42.5 -119t108.5 -49t137 46.5t123 129.5zM508 1149l-37 -37l-379 309l72 72z" />
    <glyph glyph-name="aacute" unicode="&#xe1;" horiz-adv-x="929" 
d="M893 0l-279 -33l27 223q-60 -111 -135.5 -171t-179.5 -60q-101 0 -167.5 67t-66.5 179q0 127 113 215q113 90 411 90v149q0 100 -56 156.5t-152 56.5q-125 0 -234 -100l-37 41q135 148 328 148q114 0 186 -66.5t72 -208.5v-463l22 -151l148 -25v-47zM616 231v220
q-211 0 -313 -60q-98 -55 -98 -168q0 -70 42.5 -119t108.5 -49t137 46.5t123 129.5zM825 1421l-379 -309l-37 37l344 344z" />
    <glyph glyph-name="acircumflex" unicode="&#xe2;" horiz-adv-x="929" 
d="M893 0l-279 -33l27 223q-60 -111 -135.5 -171t-179.5 -60q-101 0 -167.5 67t-66.5 179q0 127 113 215q113 90 411 90v149q0 100 -56 156.5t-152 56.5q-125 0 -234 -100l-37 41q135 148 328 148q114 0 186 -66.5t72 -208.5v-463l22 -151l148 -25v-47zM616 231v220
q-211 0 -313 -60q-98 -55 -98 -168q0 -70 42.5 -119t108.5 -49t137 46.5t123 129.5zM710 1147l-36 -37l-230 186l-233 -186l-37 37l270 268z" />
    <glyph glyph-name="atilde" unicode="&#xe3;" horiz-adv-x="929" 
d="M893 0l-279 -33l27 223q-60 -111 -135.5 -171t-179.5 -60q-101 0 -167.5 67t-66.5 179q0 127 113 215q113 90 411 90v149q0 100 -56 156.5t-152 56.5q-125 0 -234 -100l-37 41q135 148 328 148q114 0 186 -66.5t72 -208.5v-463l22 -151l148 -25v-47zM616 231v220
q-211 0 -313 -60q-98 -55 -98 -168q0 -70 42.5 -119t108.5 -49t137 46.5t123 129.5zM754 1274q-54 -146 -170 -146q-39 0 -74.5 19.5t-85.5 60.5q-72 64 -118 64q-79 0 -109 -90l-51 24q21 66 65 106t103 40q29 0 59 -13.5t47 -26t54 -42.5q3 -2 18 -15.5t18.5 -16
t16.5 -11.5t20.5 -11t19.5 -5t25 -3q34 0 65.5 24t45.5 66z" />
    <glyph glyph-name="adieresis" unicode="&#xe4;" horiz-adv-x="929" 
d="M893 0l-279 -33l27 223q-60 -111 -135.5 -171t-179.5 -60q-101 0 -167.5 67t-66.5 179q0 127 113 215q113 90 411 90v149q0 100 -56 156.5t-152 56.5q-125 0 -234 -100l-37 41q135 148 328 148q114 0 186 -66.5t72 -208.5v-463l22 -151l148 -25v-47zM616 231v220
q-211 0 -313 -60q-98 -55 -98 -168q0 -70 42.5 -119t108.5 -49t137 46.5t123 129.5zM696 1272q0 -32 -20.5 -56t-59.5 -24q-32 0 -56.5 23t-24.5 57q0 33 22.5 57.5t58.5 24.5q34 0 57 -22t23 -60zM360 1272q0 -32 -21 -56t-60 -24q-32 0 -56 23t-24 57q0 33 22 57.5
t58 24.5q35 0 58 -22t23 -60z" />
    <glyph glyph-name="aring" unicode="&#xe5;" horiz-adv-x="929" 
d="M893 0l-279 -33l27 223q-60 -111 -135.5 -171t-179.5 -60q-101 0 -167.5 67t-66.5 179q0 127 113 215q113 90 411 90v149q0 100 -56 156.5t-152 56.5q-125 0 -234 -100l-37 41q135 148 328 148q114 0 186 -66.5t72 -208.5v-463l22 -151l148 -25v-47zM616 231v220
q-211 0 -313 -60q-98 -55 -98 -168q0 -70 42.5 -119t108.5 -49t137 46.5t123 129.5zM600 1235q0 -62 -43 -103.5t-111 -41.5q-64 0 -108.5 41t-44.5 104q0 62 43.5 102.5t109.5 40.5q63 0 108.5 -39.5t45.5 -103.5zM514 1235q0 39 -17 63.5t-51 24.5q-31 0 -50 -22.5
t-19 -65.5q0 -42 18 -65t51 -23t50.5 19.5t17.5 68.5z" />
    <glyph glyph-name="ae" unicode="&#xe6;" horiz-adv-x="1421" 
d="M1327 547h-612q0 -15 -1 -35t-1 -39q0 -200 90.5 -315t251.5 -115q115 0 217 74l28 -43q-137 -117 -301 -117q-238 0 -350 238q-133 -236 -323 -236q-101 0 -167.5 67.5t-66.5 178.5q0 129 111 215q113 90 411 90v143q0 112 -57 165.5t-149 53.5q-125 0 -234 -100l-37 41
q135 148 326 148q83 0 145 -38.5t92 -117.5q40 71 117.5 112t173.5 41q333 0 336 -411zM1208 633q0 121 -61.5 193.5t-165.5 72.5t-170.5 -72.5t-89.5 -216.5h330zM614 231v220q-209 0 -311 -60q-98 -55 -98 -168q0 -70 42.5 -119t108.5 -49q64 0 133 44t125 132z" />
    <glyph glyph-name="ccedilla" unicode="&#xe7;" horiz-adv-x="890" 
d="M805 86q-153 -118 -297 -129v-55h8q88 0 149.5 -53t61.5 -134q0 -87 -71 -141.5t-201 -54.5h-58v69q51 -14 90 -14q61 0 99.5 33t38.5 88q0 57 -47.5 90t-131.5 33h-10v141q-152 15 -244 144.5t-92 338.5q0 228 112 372t292 144q67 0 123 -9t141 -36l23 -225h-64l-47 158
q-95 43 -182 43q-135 0 -213 -105.5t-78 -302.5t84.5 -313.5t232.5 -116.5q57 0 124 21t126 61z" />
    <glyph glyph-name="egrave" unicode="&#xe8;" horiz-adv-x="911" 
d="M817 543h-610q-2 -41 -2 -70q0 -199 90 -314.5t252 -115.5q115 0 215 74l31 -43q-77 -65 -143 -91t-161 -26q-180 0 -284.5 129t-104.5 365q0 240 99.5 373.5t281.5 133.5q336 0 336 -415zM700 629q0 125 -61.5 196.5t-165.5 71.5q-215 0 -260 -289h330zM526 1149
l-37 -37l-379 309l72 72z" />
    <glyph glyph-name="eacute" unicode="&#xe9;" horiz-adv-x="911" 
d="M817 543h-610q-2 -41 -2 -70q0 -199 90 -314.5t252 -115.5q115 0 215 74l31 -43q-77 -65 -143 -91t-161 -26q-180 0 -284.5 129t-104.5 365q0 240 99.5 373.5t281.5 133.5q336 0 336 -415zM700 629q0 125 -61.5 196.5t-165.5 71.5q-215 0 -260 -289h330zM852 1427
l-379 -317l-37 39l344 352z" />
    <glyph glyph-name="ecircumflex" unicode="&#xea;" horiz-adv-x="911" 
d="M817 543h-610q-2 -41 -2 -70q0 -199 90 -314.5t252 -115.5q115 0 215 74l31 -43q-77 -65 -143 -91t-161 -26q-180 0 -284.5 129t-104.5 365q0 240 99.5 373.5t281.5 133.5q336 0 336 -415zM700 629q0 125 -61.5 196.5t-165.5 71.5q-215 0 -260 -289h330zM729 1147
l-37 -37l-229 186l-234 -186l-36 37l270 268z" />
    <glyph glyph-name="edieresis" unicode="&#xeb;" horiz-adv-x="911" 
d="M817 543h-610q-2 -41 -2 -70q0 -199 90 -314.5t252 -115.5q115 0 215 74l31 -43q-77 -65 -143 -91t-161 -26q-180 0 -284.5 129t-104.5 365q0 240 99.5 373.5t281.5 133.5q336 0 336 -415zM700 629q0 125 -61.5 196.5t-165.5 71.5q-215 0 -260 -289h330zM719 1272
q0 -32 -20.5 -56t-59.5 -24q-32 0 -57 23t-25 57q0 33 22.5 57.5t59.5 24.5q34 0 57 -22t23 -60zM383 1272q0 -32 -21.5 -56t-60.5 -24q-32 0 -56 23t-24 57q0 33 22 57.5t58 24.5q35 0 58.5 -22t23.5 -60z" />
    <glyph glyph-name="igrave" unicode="&#xec;" horiz-adv-x="589" 
d="M530 0h-448v47l149 25l23 151v467l-23 154l-172 24v47l320 33l-21 -258v-467l23 -151l149 -25v-47zM336 1149l-37 -37l-379 309l72 72z" />
    <glyph glyph-name="iacute" unicode="&#xed;" horiz-adv-x="589" 
d="M530 0h-448v47l149 25l23 151v467l-23 154l-172 24v47l320 33l-21 -258v-467l23 -151l149 -25v-47zM684 1421l-379 -309l-37 37l344 344z" />
    <glyph glyph-name="icircumflex" unicode="&#xee;" horiz-adv-x="589" 
d="M530 0h-448v47l149 25l23 151v467l-23 154l-172 24v47l320 33l-21 -258v-467l23 -151l149 -25v-47zM567 1147l-37 -37l-229 186l-233 -186l-37 37l270 268z" />
    <glyph glyph-name="idieresis" unicode="&#xef;" horiz-adv-x="589" 
d="M502 1272q0 -32 -20.5 -56t-59.5 -24q-32 0 -57 23t-25 57q0 33 22.5 57.5t59.5 24.5q34 0 57 -22t23 -60zM223 1272q0 -32 -21.5 -56t-60.5 -24q-32 0 -56 23t-24 57q0 33 22 57.5t58 24.5q35 0 58.5 -22t23.5 -60zM530 0h-448v47l149 25l23 151v467l-23 154l-172 24v47
l320 33l-21 -258v-467l23 -151l149 -25v-47z" />
    <glyph glyph-name="eth" unicode="&#xf0;" horiz-adv-x="1046" 
d="M1010 0l-275 -43l23 186q-76 -98 -149 -142t-173 -44q-154 0 -245 119t-91 327q0 245 135 400t351 155q88 0 149 -16v193h-203v73h203l-22 148l-172 24v47l321 33l-20 -252h159v-73h-159v-912l22 -151l146 -25v-47zM735 203v647q-50 21 -86 29t-90 8
q-167 0 -256.5 -122.5t-89.5 -322.5q0 -190 65.5 -290.5t198.5 -100.5q129 0 258 152z" />
    <glyph glyph-name="ntilde" unicode="&#xf1;" horiz-adv-x="1148" 
d="M1110 0h-438v47l135 25l22 151v389q0 115 -56.5 183.5t-158.5 68.5q-71 0 -121.5 -28.5t-134.5 -118.5v-494l23 -151l135 -25v-47h-434v47l149 25l23 151v467l-23 154l-172 24v47l299 33l-20 -176q67 96 144 141t173 45q126 0 204.5 -83t78.5 -226v-426l20 -151l152 -25
v-47zM880 1274q-54 -146 -170 -146q-39 0 -74.5 19.5t-85.5 60.5q-72 64 -118 64q-79 0 -109 -90l-51 24q21 66 65 106t103 40q29 0 59 -13.5t47 -26t54 -42.5q3 -2 18 -15.5t18.5 -16t16.5 -11.5t20.5 -11t19.5 -5t25 -3q34 0 65.5 24t45.5 66z" />
    <glyph glyph-name="ograve" unicode="&#xf2;" horiz-adv-x="1048" 
d="M948 457q0 -227 -118.5 -363.5t-313.5 -136.5q-191 0 -303.5 129t-112.5 354q0 239 116 378.5t323 139.5q193 0 301 -128.5t108 -372.5zM834 461q0 200 -82.5 319t-219.5 119q-146 0 -230.5 -114.5t-84.5 -321.5q0 -206 81 -325.5t220 -119.5q143 0 229.5 119t86.5 324z
M563 1149l-37 -37l-379 309l72 72z" />
    <glyph glyph-name="oacute" unicode="&#xf3;" horiz-adv-x="1048" 
d="M948 457q0 -227 -118.5 -363.5t-313.5 -136.5q-191 0 -303.5 129t-112.5 354q0 239 116 378.5t323 139.5q193 0 301 -128.5t108 -372.5zM834 461q0 200 -82.5 319t-219.5 119q-146 0 -230.5 -114.5t-84.5 -321.5q0 -206 81 -325.5t220 -119.5q143 0 229.5 119t86.5 324z
M909 1421l-379 -309l-37 37l344 344z" />
    <glyph glyph-name="ocircumflex" unicode="&#xf4;" horiz-adv-x="1048" 
d="M948 457q0 -227 -118.5 -363.5t-313.5 -136.5q-191 0 -303.5 129t-112.5 354q0 239 116 378.5t323 139.5q193 0 301 -128.5t108 -372.5zM834 461q0 200 -82.5 319t-219.5 119q-146 0 -230.5 -114.5t-84.5 -321.5q0 -206 81 -325.5t220 -119.5q143 0 229.5 119t86.5 324z
M788 1147l-36 -37l-230 186l-233 -186l-37 37l270 268z" />
    <glyph glyph-name="otilde" unicode="&#xf5;" horiz-adv-x="1048" 
d="M948 457q0 -227 -118.5 -363.5t-313.5 -136.5q-191 0 -303.5 129t-112.5 354q0 239 116 378.5t323 139.5q193 0 301 -128.5t108 -372.5zM834 461q0 200 -82.5 319t-219.5 119q-146 0 -230.5 -114.5t-84.5 -321.5q0 -206 81 -325.5t220 -119.5q143 0 229.5 119t86.5 324z
M825 1274q-54 -146 -170 -146q-39 0 -74.5 19.5t-85.5 60.5q-72 64 -118 64q-79 0 -109 -90l-51 24q21 66 65 106t103 40q29 0 59 -13.5t47 -26t54 -42.5q3 -2 18 -15.5t18.5 -16t16.5 -11.5t20.5 -11t19.5 -5t25 -3q34 0 65.5 24t45.5 66z" />
    <glyph glyph-name="odieresis" unicode="&#xf6;" horiz-adv-x="1048" 
d="M948 457q0 -227 -118.5 -363.5t-313.5 -136.5q-191 0 -303.5 129t-112.5 354q0 239 116 378.5t323 139.5q193 0 301 -128.5t108 -372.5zM834 461q0 200 -82.5 319t-219.5 119q-146 0 -230.5 -114.5t-84.5 -321.5q0 -206 81 -325.5t220 -119.5q143 0 229.5 119t86.5 324z
M770 1272q0 -32 -20.5 -56t-59.5 -24q-32 0 -57 23t-25 57q0 33 22.5 57.5t59.5 24.5q34 0 57 -22t23 -60zM434 1272q0 -32 -21.5 -56t-60.5 -24q-32 0 -56 23t-24 57q0 33 22 57.5t58 24.5q35 0 58.5 -22t23.5 -60z" />
    <glyph glyph-name="divide" unicode="&#xf7;" 
d="M911 512h-362v-381h-74v381h-362v74h362v383h74v-383h362v-74zM911 -72h-798v76h798v-76z" />
    <glyph glyph-name="oslash" unicode="&#xf8;" horiz-adv-x="1048" 
d="M948 457q0 -227 -118.5 -363.5t-313.5 -136.5q-72 0 -133 18l-55 -149l-64 22l55 152q-104 55 -161.5 167.5t-57.5 272.5q0 239 116 378.5t323 139.5q65 0 131 -16l63 168l64 -25l-64 -170q104 -53 159.5 -169t55.5 -289zM834 461q0 251 -132 370l-294 -790
q54 -23 110 -23q143 0 229.5 119t86.5 324zM645 872q-56 27 -113 27q-146 0 -230.5 -114.5t-84.5 -321.5q0 -129 35 -227t100 -152z" />
    <glyph glyph-name="ugrave" unicode="&#xf9;" horiz-adv-x="1146" 
d="M1110 0l-281 -33l23 176q-81 -101 -151 -143.5t-164 -42.5q-131 0 -207 82t-76 227v424l-23 154l-172 24v47l322 33l-21 -258v-387q0 -118 55.5 -185t157.5 -67q74 0 135.5 40t120.5 108v491l-20 154l-172 24v47l321 33l-20 -258v-467l20 -151l152 -25v-47zM610 1149
l-37 -37l-378 309l71 72z" />
    <glyph glyph-name="uacute" unicode="&#xfa;" horiz-adv-x="1146" 
d="M1110 0l-281 -33l23 176q-81 -101 -151 -143.5t-164 -42.5q-131 0 -207 82t-76 227v424l-23 154l-172 24v47l322 33l-21 -258v-387q0 -118 55.5 -185t157.5 -67q74 0 135.5 40t120.5 108v491l-20 154l-172 24v47l321 33l-20 -258v-467l20 -151l152 -25v-47zM952 1421
l-379 -309l-37 37l344 344z" />
    <glyph glyph-name="ucircumflex" unicode="&#xfb;" horiz-adv-x="1146" 
d="M1110 0l-281 -33l23 176q-81 -101 -151 -143.5t-164 -42.5q-131 0 -207 82t-76 227v424l-23 154l-172 24v47l322 33l-21 -258v-387q0 -118 55.5 -185t157.5 -67q74 0 135.5 40t120.5 108v491l-20 154l-172 24v47l321 33l-20 -258v-467l20 -151l152 -25v-47zM843 1147
l-36 -37l-230 186l-233 -186l-37 37l270 268z" />
    <glyph glyph-name="udieresis" unicode="&#xfc;" horiz-adv-x="1146" 
d="M1110 0l-281 -33l23 176q-81 -101 -151 -143.5t-164 -42.5q-131 0 -207 82t-76 227v424l-23 154l-172 24v47l322 33l-21 -258v-387q0 -118 55.5 -185t157.5 -67q74 0 135.5 40t120.5 108v491l-20 154l-172 24v47l321 33l-20 -258v-467l20 -151l152 -25v-47zM819 1272
q0 -32 -20.5 -56t-59.5 -24q-32 0 -57 23t-25 57q0 33 22.5 57.5t59.5 24.5q34 0 57 -22t23 -60zM483 1272q0 -32 -21.5 -56t-60.5 -24q-32 0 -55.5 23t-23.5 57q0 33 21.5 57.5t57.5 24.5q35 0 58.5 -22t23.5 -60z" />
    <glyph glyph-name="yacute" unicode="&#xfd;" horiz-adv-x="1017" 
d="M989 868l-100 -22l-72 -156l-446 -1202l-267 23v51l185 28l84 144l112 264l-282 692l-86 156l-88 22v47h383v-47l-144 -22l49 -156l222 -557l200 557l41 156l-139 22v47h348v-47zM915 1421l-378 -309l-37 37l344 344z" />
    <glyph glyph-name="thorn" unicode="&#xfe;" horiz-adv-x="1095" 
d="M995 520q0 -245 -136 -404t-357 -159q-74 0 -142 16v-239l23 -152l172 -24v-47h-471v40l149 31l23 152v1468l-23 154l-172 24v47l320 33l-21 -258v-409q63 77 147.5 121t176.5 44q138 0 224.5 -122t86.5 -316zM885 481q0 179 -62 279t-178 100q-167 0 -285 -151v-648
q92 -32 172 -32q162 0 257.5 121t95.5 331z" />
    <glyph glyph-name="ydieresis" unicode="&#xff;" horiz-adv-x="1017" 
d="M989 868l-100 -22l-72 -156l-446 -1202l-267 23v51l185 28l84 144l112 264l-282 692l-86 156l-88 22v47h383v-47l-144 -22l49 -156l222 -557l200 557l41 156l-139 22v47h348v-47zM785 1272q0 -32 -20.5 -56t-59.5 -24q-32 0 -57 23t-25 57q0 33 22.5 57.5t59.5 24.5
q34 0 57 -22t23 -60zM449 1272q0 -32 -21.5 -56t-60.5 -24q-32 0 -56 23t-24 57q0 33 22 57.5t58 24.5q35 0 58.5 -22t23.5 -60z" />
    <glyph glyph-name="dotlessi" unicode="&#x131;" horiz-adv-x="589" 
d="M530 0h-448v47l149 25l23 151v467l-23 154l-172 24v47l320 33l-21 -258v-467l23 -151l149 -25v-47z" />
    <glyph glyph-name="Lslash" unicode="&#x141;" horiz-adv-x="1040" 
d="M1040 309l-20 -309h-938v47l174 33l20 207v358h-215v74h215v334l-20 207l-174 32v47h508v-47l-172 -32l-23 -207v-334h228v-74h-228v-358l23 -183l170 -32h157l183 32l43 205h69z" />
    <glyph glyph-name="lslash" unicode="&#x142;" horiz-adv-x="589" 
d="M545 680h-187v-457l23 -151l149 -25v-47h-448v47l149 25l23 151v457h-180v74h180v448l-23 154l-172 24v47l320 33l-21 -258v-448h187v-74z" />
    <glyph glyph-name="OE" unicode="&#x152;" horiz-adv-x="1804" 
d="M1737 309l-23 -309h-768q-150 -43 -254 -43q-590 0 -590 713q0 334 165 524t429 190q135 0 277 -45h704l21 -309h-72l-43 205l-197 33h-309v-547h178l170 22l23 172h59v-458h-59l-23 174l-170 20h-178v-364l23 -183l170 -32h170l182 32l43 205h72zM961 289v764l-23 207
q-120 63 -233 63q-220 0 -350 -170.5t-130 -472.5q0 -303 129.5 -483.5t350.5 -180.5q116 0 233 70z" />
    <glyph glyph-name="oe" unicode="&#x153;" horiz-adv-x="1646" 
d="M1550 547h-610q-4 -54 -4 -74q0 -198 90 -314t252 -116q116 0 219 74l29 -43q-129 -117 -301 -117q-114 0 -203.5 58t-136.5 167q-37 -101 -141 -163t-232 -62q-189 0 -300.5 128t-111.5 355q0 239 115.5 378t321.5 140q126 2 216 -55.5t136 -169.5q37 99 119.5 162
t208.5 63q329 0 333 -411zM1434 633q0 120 -61.5 193t-164.5 73q-99 0 -168.5 -73.5t-93.5 -215.5h330zM834 459q0 201 -82 320.5t-220 119.5q-146 0 -230.5 -112t-84.5 -322q0 -205 80.5 -326t220.5 -121q143 0 229.5 118t86.5 323z" />
    <glyph glyph-name="Scaron" unicode="&#x160;" horiz-adv-x="993" 
d="M918 344q0 -174 -128 -279.5t-341 -105.5q-80 0 -149 12t-169 49l-22 293h81l39 -213q68 -29 116 -42t106 -13q151 0 252.5 70t101.5 192q0 48 -11.5 87.5t-35.5 69.5t-50 52.5t-66.5 42.5t-73 33t-79.5 31q-15 5 -22 8q-58 22 -96.5 39t-85.5 42.5t-76.5 52.5t-56.5 62
t-39.5 80t-12.5 99q0 70 27 136t79 121t139 88t196 33q151 0 331 -61l23 -295h-82l-41 219q-49 28 -117.5 43t-115.5 15q-156 0 -241 -74t-85 -184q0 -51 17 -93t41 -69t68 -53t77 -40.5t90 -35.5q170 -66 240 -110q151 -95 169 -252q3 -24 3 -50zM772 1796l-268 -268
l-268 268l39 37l229 -184l229 184z" />
    <glyph glyph-name="scaron" unicode="&#x161;" horiz-adv-x="763" 
d="M678 250q0 -121 -88.5 -206t-222.5 -85q-124 0 -256 57l-19 213h66l41 -149q88 -43 172 -43q101 0 158 47t57 133q0 21 -4 40t-9 33.5t-17.5 28.5t-20 23.5t-27 21t-27.5 16.5t-33.5 15.5t-33 13t-37 13t-35.5 12.5q-103 38 -136 57q-118 68 -118 201q0 119 83.5 197
t221.5 78q131 0 258 -58l21 -213h-68l-43 156q-95 37 -188 37q-189 0 -189 -164q0 -35 11.5 -63t26.5 -45t44.5 -33.5t49 -24t55.5 -20.5q13 -5 20 -7q124 -42 168 -67q108 -63 118 -188q1 -13 1 -27zM645 1376l-268 -268l-268 268l38 37l230 -184l229 184z" />
    <glyph glyph-name="Ydieresis" unicode="&#x178;" horiz-adv-x="1189" 
d="M1174 1292l-134 -32l-137 -207l-231 -424v-342l20 -207l174 -33v-47h-508v47l172 33l23 207v299l-270 467l-142 207l-125 32v47h457v-47l-156 -32l103 -207l211 -365l194 365l93 207l-152 32v47h408v-47zM881 1692q0 -32 -20.5 -56t-59.5 -24q-32 0 -57 23t-25 57
q0 33 22.5 57.5t59.5 24.5q34 0 57 -22t23 -60zM545 1692q0 -32 -21.5 -56t-60.5 -24q-32 0 -56 23t-24 57q0 33 22 57.5t58 24.5q35 0 58.5 -22t23.5 -60z" />
    <glyph glyph-name="Zcaron" unicode="&#x17d;" horiz-adv-x="1101" 
d="M1012 291l-23 -291h-899v53l148 234l450 766l115 217h-379l-199 -33l-43 -186h-71l20 288h844v-47l-148 -239l-450 -766l-115 -215h449l186 32l45 187h70zM817 1796l-268 -268l-268 268l39 37l229 -184l229 184z" />
    <glyph glyph-name="zcaron" unicode="&#x17e;" horiz-adv-x="874" 
d="M784 225l-20 -225h-674v59l117 164l297 467l92 164h-256l-145 -23l-37 -143h-66l23 227h626v-59l-112 -166l-295 -467l-88 -162h291l145 23l39 141h63zM707 1376l-269 -268l-268 268l39 37l229 -184l230 184z" />
    <glyph glyph-name="florin" unicode="&#x192;" 
d="M1192 1434l-33 -138q-113 52 -196 52q-69 0 -121 -50q-35 -33 -61.5 -110.5t-63.5 -263.5l-2 -9h209v-71h-224l-184 -899q-43 -213 -178 -336q-119 -107 -266 -107q-55 0 -109 13l25 125q105 -33 168 -33q105 0 163 90q56 82 87 231l190 916h-182v71h196l8 35
q62 293 177 400q53 49 119.5 76.5t121.5 27.5q56 0 156 -20z" />
    <glyph glyph-name="circumflex" unicode="&#x2c6;" horiz-adv-x="0" 
d="M274 1147l-36 -37l-230 186l-233 -186l-37 37l270 268z" />
    <glyph glyph-name="caron" unicode="&#x2c7;" horiz-adv-x="0" 
d="M268 1376l-268 -268l-268 268l39 37l229 -184l229 184z" />
    <glyph glyph-name="breve" unicode="&#x2d8;" horiz-adv-x="0" 
d="M317 1384q-26 -139 -110.5 -219t-208.5 -80q-116 0 -201 79.5t-114 219.5l81 21q15 -111 79.5 -184.5t154.5 -73.5q85 0 151.5 71t83.5 187z" />
    <glyph glyph-name="dotaccent" unicode="&#x2d9;" horiz-adv-x="0" 
d="M113 1241q0 -47 -31 -80t-82 -33q-47 0 -80 31t-33 82q0 45 31.5 79t81.5 34q44 0 78.5 -32t34.5 -81z" />
    <glyph glyph-name="ring" unicode="&#x2da;" horiz-adv-x="0" 
d="M154 1235q0 -62 -43 -103.5t-111 -41.5q-64 0 -109 41t-45 104q0 61 44 102t110 41q63 0 108.5 -39.5t45.5 -103.5zM68 1235q0 39 -17 63.5t-51 24.5q-31 0 -50.5 -22.5t-19.5 -65.5q0 -42 18 -65t52 -23q33 0 50.5 19.5t17.5 68.5z" />
    <glyph glyph-name="ogonek" unicode="&#x2db;" horiz-adv-x="0" 
d="M178 -313q-39 -26 -87.5 -45t-82.5 -19q-98 0 -151.5 55t-53.5 146q0 93 70.5 162.5t208.5 68.5l14 -55q-114 0 -160.5 -41t-46.5 -119q0 -64 35.5 -100.5t91.5 -36.5q58 0 140 39z" />
    <glyph glyph-name="tilde" unicode="&#x2dc;" horiz-adv-x="0" 
d="M305 1274q-54 -146 -170 -146q-39 0 -74.5 19.5t-85.5 60.5q-72 64 -118 64q-79 0 -109 -90l-51 24q21 66 65 106t103 40q29 0 59 -13.5t47 -26t54 -42.5q3 -2 18 -15.5t18.5 -16t16.5 -11.5t20.5 -11t19.5 -5t25 -3q34 0 65.5 24t45.5 66z" />
    <glyph glyph-name="hungarumlaut" unicode="&#x2dd;" horiz-adv-x="0" 
d="M381 1376l-266 -264l-37 37l244 287zM160 1376l-266 -264l-37 37l243 287z" />
    <glyph glyph-name="pi" unicode="&#x3c0;" horiz-adv-x="1665" 
d="M1546 510q0 -143 -57 -274.5t-152.5 -227.5t-228 -153.5t-277.5 -57.5q-143 0 -274 56t-227.5 150.5t-153.5 227t-57 279.5t56.5 279.5t152.5 228t227.5 151.5t275.5 56q197 0 361.5 -95.5t259 -259.5t94.5 -360zM1458 510q0 168 -84 313t-228.5 230.5t-314.5 85.5
t-313.5 -82.5t-228 -227.5t-84.5 -319q0 -169 84 -313.5t228.5 -229t313.5 -84.5q170 0 314.5 84.5t228.5 229t84 313.5zM1126 715q0 -100 -73.5 -154.5t-249.5 -54.5v-172l16 -107l103 -20v-47h-330v47l100 20l15 107v387l-15 104l-114 21v49h348q200 0 200 -180zM1024 702
q0 136 -164 136h-57v-275h41q180 0 180 139z" />
    <glyph glyph-name="endash" unicode="&#x2013;" 
d="M1034 446h-1044v74h1044v-74z" />
    <glyph glyph-name="emdash" unicode="&#x2014;" horiz-adv-x="2048" 
d="M2058 446h-2068v74h2068v-74z" />
    <glyph glyph-name="quoteleft" unicode="&#x2018;" horiz-adv-x="387" 
d="M309 1286q-74 -19 -109 -67.5t-22 -116.5q53 4 83 -23.5t30 -74.5q0 -41 -25.5 -70t-70.5 -29q-54 0 -86.5 46t-32.5 124q0 93 52 170t159 103z" />
    <glyph glyph-name="quoteright" unicode="&#x2019;" horiz-adv-x="387" 
d="M309 1180q0 -60 -19 -112.5t-68.5 -97.5t-123.5 -63l-22 62q74 19 109.5 67.5t23.5 116.5q-54 -4 -84.5 23.5t-30.5 74.5q0 40 27 69.5t72 29.5q53 0 84.5 -46t31.5 -124z" />
    <glyph glyph-name="quotesinglbase" unicode="&#x201a;" horiz-adv-x="387" 
d="M309 -2q0 -44 -11.5 -84.5t-35 -78.5t-66 -67t-98.5 -42l-22 61q74 19 109.5 67.5t23.5 116.5q-54 -4 -84.5 24t-30.5 75q0 40 27 69t72 29q53 0 84.5 -46t31.5 -124z" />
    <glyph glyph-name="quotedblleft" unicode="&#x201c;" horiz-adv-x="690" 
d="M616 1286q-74 -19 -110 -68.5t-23 -117.5q54 6 84.5 -21.5t30.5 -74.5q0 -42 -26.5 -70.5t-71.5 -28.5q-53 0 -85 46t-32 124q0 60 19 112.5t68.5 97.5t123.5 63zM309 1286q-74 -19 -109 -68t-22 -118q53 6 83 -21.5t30 -74.5q0 -42 -25.5 -70.5t-70.5 -28.5
q-54 0 -86.5 46t-32.5 124q0 93 52 170t159 103z" />
    <glyph glyph-name="quotedblright" unicode="&#x201d;" horiz-adv-x="690" 
d="M612 1180q0 -60 -19 -112.5t-68.5 -97.5t-123.5 -63l-22 62q75 19 110.5 67.5t22.5 116.5q-54 -4 -84.5 23.5t-30.5 74.5q0 40 27 69.5t72 29.5q53 0 84.5 -46t31.5 -124zM309 1180q0 -94 -51 -170.5t-158 -102.5l-22 62q73 19 108.5 67.5t22.5 116.5q-53 -4 -84 23.5
t-31 74.5q0 40 27 69.5t72 29.5q53 0 84.5 -46t31.5 -124z" />
    <glyph glyph-name="quotedblbase" unicode="&#x201e;" horiz-adv-x="690" 
d="M610 -2q0 -44 -11.5 -84.5t-35 -78.5t-66 -67t-98.5 -42l-22 59q74 20 109.5 69t23.5 117q-54 -4 -84.5 23.5t-30.5 75.5q0 40 27 69t72 29q53 0 84.5 -46t31.5 -124zM309 -2q0 -44 -11.5 -84.5t-35 -78.5t-66 -67t-98.5 -42l-22 61q74 19 109.5 67.5t23.5 116.5
q-54 -4 -84.5 24t-30.5 75q0 40 27 69t72 29q53 0 84.5 -46t31.5 -124z" />
    <glyph glyph-name="dagger" unicode="&#x2020;" 
d="M852 856l-303 23v-699l22 -387h-118l22 387v699l-303 -23v117l303 -21l-22 387h118l-22 -387l303 21v-117z" />
    <glyph glyph-name="daggerdbl" unicode="&#x2021;" 
d="M852 154l-303 24l22 -385h-118l24 385l-305 -24v116l305 -20v629l-305 -23v117l305 -21l-24 387h118l-22 -387l303 21v-117l-303 23v-629l303 20v-116z" />
    <glyph glyph-name="bullet" unicode="&#x2022;" horiz-adv-x="681" 
d="M524 436q0 -73 -52.5 -127.5t-129.5 -54.5q-73 0 -127.5 53.5t-54.5 128.5q0 73 53.5 127.5t128.5 54.5q73 0 127.5 -52.5t54.5 -129.5z" />
    <glyph glyph-name="ellipsis" unicode="&#x2026;" horiz-adv-x="1169" 
d="M1077 84q0 -40 -27.5 -70t-74.5 -30q-43 0 -73 26.5t-30 73.5q0 42 29 73t74 31q41 0 71.5 -29.5t30.5 -74.5zM688 84q0 -39 -28.5 -69.5t-73.5 -30.5q-43 0 -74 26.5t-31 73.5q0 41 29.5 72.5t75.5 31.5q40 0 71 -30t31 -74zM295 84q0 -40 -27.5 -70t-74.5 -30
q-43 0 -73 26.5t-30 73.5q0 42 29 73t74 31q41 0 71.5 -29.5t30.5 -74.5z" />
    <glyph glyph-name="perthousand" unicode="&#x2030;" horiz-adv-x="2662" 
d="M2546 352q0 -172 -88 -280.5t-238 -108.5q-146 0 -239 107t-93 280q0 169 90 275t238 106t239 -101.5t91 -277.5zM1755 352q0 -172 -87.5 -280.5t-237.5 -108.5q-146 0 -239 107t-93 280q0 169 89.5 275t237.5 106t239 -101.5t91 -277.5zM1221 1358l-500 -1372l-72 26
l502 1372zM772 1001q0 -172 -88 -280.5t-238 -108.5q-146 0 -238.5 107t-92.5 280q0 169 89.5 275t237.5 106t239 -101.5t91 -277.5zM2451 344q2 144 -63.5 232t-179.5 88q-102 0 -164 -88t-62 -230q0 -130 69 -220.5t171 -90.5q103 0 166 82.5t63 226.5zM1663 344
q0 144 -66 232t-180 88q-102 0 -163.5 -88t-61.5 -230q0 -130 69 -220.5t171 -90.5q104 0 167 82t64 227zM680 993q0 144 -66 231t-180 87q-102 1 -163.5 -86.5t-61.5 -231.5q0 -129 69 -219t171 -90q104 0 167 82t64 227z" />
    <glyph glyph-name="guilsinglleft" unicode="&#x2039;" horiz-adv-x="681" 
d="M565 84l-41 -43l-430 422l430 420l41 -43l-323 -377z" />
    <glyph glyph-name="guilsinglright" unicode="&#x203a;" horiz-adv-x="681" 
d="M590 463l-430 -422l-41 43l323 379l-323 377l41 43z" />
    <glyph glyph-name="fraction" unicode="&#x2044;" horiz-adv-x="243" 
d="M379 1354l-442 -1372l-76 22l440 1376z" />
    <glyph glyph-name="trademark" unicode="&#x2122;" horiz-adv-x="1863" 
d="M1724 645h-299v51l93 19l10 98v453l-176 -459l-58 -162h-73l-60 162l-168 457v-451l11 -98l92 -19v-51h-271v51l93 19l10 98v401l-10 99l-93 16v51h232l53 -161l162 -431l172 433l53 159h227v-51l-90 -16l-10 -99v-401l10 -98l90 -19v-51zM748 1188h-64l-25 117l-96 10
h-80v-502l11 -98l92 -19v-51h-301v51l92 19l10 98v502h-80l-96 -10l-25 -117h-65l14 192h598z" />
    <glyph glyph-name="Omega" unicode="&#x2126;" horiz-adv-x="657" 
d="M602 670q0 -145 -116 -243.5t-308 -98.5h-63v86q45 -11 96 -11q130 0 212.5 67t82.5 187q0 115 -95.5 186.5t-308.5 71.5l35 422h443l-11 -102l-145 16h-221l-25 -256q198 0 311 -88t113 -237z" />
    <glyph glyph-name="partialdiff" unicode="&#x2202;" horiz-adv-x="659" 
d="M590 659q0 -138 -119.5 -229.5t-310.5 -91.5h-66v80q54 -10 107 -10q122 0 203 67.5t81 169.5q0 217 -327 217v60q137 6 220 68.5t83 164.5q0 63 -42.5 104t-109.5 41q-45 0 -84.5 -16.5t-95.5 -60.5l-39 45q45 52 112.5 82t135.5 30q99 0 163 -59t64 -158
q0 -77 -54.5 -146t-148.5 -102q100 -11 164 -81.5t64 -174.5z" />
    <glyph glyph-name="Delta" unicode="&#x2206;" horiz-adv-x="700" 
d="M641 889q0 -121 -86.5 -202t-220.5 -81q-119 0 -198 68t-79 180q0 178 236 299q-108 71 -153.5 125.5t-45.5 132.5q0 106 81.5 176t201.5 70q101 0 171 -62t70 -161q0 -161 -190 -263q126 -90 169.5 -149.5t43.5 -132.5zM522 1417q0 77 -44 127.5t-116 50.5
q-70 0 -121 -43t-51 -112q0 -67 40 -114.5t147 -121.5q76 43 110.5 91t34.5 122zM543 844q0 44 -12 79.5t-41 68.5t-60.5 59t-87.5 65q-80 -39 -130 -103.5t-50 -142.5q0 -84 53.5 -142t140.5 -58q76 0 131.5 49.5t55.5 124.5z" />
    <glyph glyph-name="product" unicode="&#x220f;" horiz-adv-x="1814" 
d="M1825 53q-109 -96 -217 -96q-183 0 -183 205v688h-475v-627l23 -151l129 -25v-47h-428v47l147 25l23 151v627h-500v-627l23 -151l129 -25v-47h-428v47l149 25l23 151v627h-174v53l174 33v154q1 100 44.5 184.5t133.5 139t211 54.5q176 0 319 -116q50 50 124.5 83
t162.5 33q151 0 283 -129l-70 -86q-108 127 -248 127q-113 0 -185.5 -61t-68.5 -191l4 -213h375l100 21v190l113 21v-232h240v-65h-240v-641q0 -89 29 -120.5t86 -31.5q79 0 141 43zM881 1260q-59 52 -136.5 86t-150.5 34q-112 0 -185 -61.5t-69 -190.5l4 -213h500v175
q3 84 37 170z" />
    <glyph glyph-name="summation" unicode="&#x2211;" horiz-adv-x="1099" 
d="M948 1339l-67 -86q-127 127 -289 127q-116 0 -186 -59.5t-66 -192.5l4 -213h285l317 33l-20 -258v-649q0 -169 -67 -295.5t-212 -220.5l-33 47q201 153 201 446v672l-22 144l-164 16h-285v-627l23 -151l129 -25v-47h-428v47l149 25l23 151v627h-174v53l174 33v154
q1 104 43.5 188t132.5 137t213 53q169 0 319 -129z" />
    <glyph glyph-name="minus" unicode="&#x2212;" horiz-adv-x="2048" 
d="M2048 682q-8 3 -29.5 5t-38.5 3h-18q-111 0 -190 -90q-51 -57 -91 -176q-9 16 -14.5 63.5t-18.5 103t-40 93.5q-26 34 -69.5 60.5t-94.5 35.5q-47 12 -55 21q-3 26 -4 73t-2.5 82.5t-7 71.5t-22 56t-44.5 20q-24 0 -39 -14.5t-15 -38.5q0 -21 12.5 -63.5t12.5 -117.5
q0 -80 -8 -92q-6 -12 -28 -16.5t-78 -26t-126 -69.5q-86 91 -120 116q-46 35 -78 35q-131 0 -172 -51q2 16 2 33q0 80 -47.5 154t-116.5 116q-66 40 -134 64t-112 24q-37 0 -45 -16q0 1 -2 8.5t-2.5 9.5t-3 8.5t-4 9t-5 7t-7.5 6t-9.5 3t-11.5 1.5q-47 0 -57 -27
q-10 -22 0 -84q0 -1 9 -64t15.5 -116t14 -131t8.5 -135q1 -14 3 -33.5t2.5 -28t-3 -17.5t-12.5 -15q-105 3 -152 -6v999h2048v-854zM563 817q0 -54 -26.5 -104.5t-67.5 -83.5q-50 -40 -82 -52.5t-82 -19.5h-26q0 48 -12 240.5t-27 238.5q21 -10 39 -12q78 -8 127 -37
q59 -32 108 -82.5t49 -87.5zM2048 -512h-2048v950q41 -9 90.5 -12t65.5 -6q-1 -20 7.5 -93t8.5 -184q0 -196 11.5 -262.5t49.5 -66.5q44 0 56.5 28.5t2.5 57.5l-9 28q0 248 -5.5 294.5t-5.5 205.5q111 15 209 70q75 43 154 145q-1 -24 13 -97.5t18 -113.5q8 -96 32 -217
q25 -130 95 -174q12 -7 66 -19t61 -12h8q23 0 36 1t31 5.5t26.5 16t8.5 30.5q0 29 -19 44t-40.5 18t-56 3.5t-46.5 2.5q-25 4 -45 51t-27.5 85t-7.5 46q-3 18 -10 52.5t-11 56.5l-10 55t-9.5 55t-7.5 49t-5.5 44.5t-2 34.5t2 27t6.5 13q24 19 72 19q38 0 91.5 -57.5
t53.5 -94.5q0 -32 -18 -53.5t-40 -30.5t-40 -24.5t-18 -36.5q0 -27 18 -41.5t35 -11.5q20 3 30 8.5t29.5 23.5t40.5 33t60 74.5t67 77.5q81 55 148 61q18 -210 28 -360q1 -17 -2 -47.5t-6 -51.5l-4 -22q0 -35 42.5 -78t105.5 -43q23 0 38 2t29.5 13t14.5 32q0 32 -11 41.5
t-27 8t-32.5 0.5t-27.5 28t-11 82q0 21 -9.5 103.5t-11.5 129.5l-6 197h45q10 -6 33.5 -17t36 -19t29 -26.5t26.5 -44.5q7 -17 19.5 -116.5t27.5 -224.5t25 -181q9 -24 80 -24q18 0 21 23t6 98.5t18 154.5q14 71 41 126t56 82.5t56 45t44 21.5l18 4q51 0 86 -9v-1087z" />
    <glyph glyph-name="radical" unicode="&#x221a;" 
d="M999 1264l-86 -232l-254 -809l-81 -264h-76l-96 264l-179 467l-80 156l-122 22v47l237 33l84 -258l213 -563l281 905l67 258z" />
    <glyph glyph-name="infinity" unicode="&#x221e;" horiz-adv-x="1771" 
d="M1712 0h-430v47l131 25l21 151v467l-21 144l-170 16h-293v-627l23 -151l129 -25v-47h-430v47l149 25l23 151v627h-500v-627l23 -151l129 -25v-47h-428v47l149 25l23 151v627h-174v53l174 33v154q1 104 43.5 188t132.5 137t213 53q176 0 319 -116q107 116 287 116
t334 -129l-70 -86q-58 59 -139 93t-160 34q-116 0 -187 -59.5t-67 -192.5l4 -213h291l320 33l-21 -258v-467l21 -151l151 -25v-47zM881 1260q-55 55 -132.5 87.5t-154.5 32.5q-116 0 -187 -59.5t-67 -192.5l4 -213h500v175q3 95 37 170z" />
    <glyph glyph-name="integral" unicode="&#x222b;" horiz-adv-x="722" 
d="M721 793l-19 -107h-167v-287l-97 -22v309h-389v72l422 608h64v-598zM438 768v434l-297 -434h297z" />
    <glyph glyph-name="approxequal" unicode="&#x2248;" horiz-adv-x="659" 
d="M610 1296l-413 -911l-91 43l410 821h-289l-151 -14l22 102h512v-41z" />
    <glyph glyph-name="notequal" unicode="&#x2260;" horiz-adv-x="1220" 
d="M1321 1444l-47 -109q-86 37 -158 37q-41 0 -69.5 -8.5t-54 -31.5t-37 -68.5t-9.5 -114.5l4 -234h240v-65h-240v-627l23 -151l172 -25v-47h-471v47l147 25l23 151v627h-500v-627l23 -151l129 -25v-47h-428v47l149 25l23 151v627h-174v53l174 33v154q1 104 43.5 188
t132.5 137t213 53q85 0 166.5 -28.5t136.5 -73.5q92 107 242 107q52 0 147 -29zM870 1270q-136 110 -276 110q-116 0 -187 -59.5t-67 -192.5l4 -213h393l107 21v154q6 132 26 180z" />
    <glyph glyph-name="lessequal" unicode="&#x2264;" horiz-adv-x="745" 
d="M702 1001q0 -172 -87.5 -280.5t-237.5 -108.5q-146 0 -239 107t-93 280q0 169 90 275t238 106t238.5 -103t90.5 -276zM608 993q2 144 -64.5 231t-181.5 87q-101 0 -162 -87.5t-61 -230.5q0 -129 69 -219t171 -90q103 0 166 82.5t63 226.5z" />
    <glyph glyph-name="greaterequal" unicode="&#x2265;" horiz-adv-x="542" 
d="M467 645h-391v53l133 17l14 106v350l-14 109l-133 16v52h391v-52l-131 -16l-17 -109v-350l17 -106l131 -17v-53z" />
    <glyph glyph-name="lozenge" unicode="&#x25ca;" horiz-adv-x="1208" 
d="M1219 53q-61 -50 -109 -73t-109 -23q-33 0 -61.5 8.5t-57 29t-45 63.5t-16.5 104v688h-477v-627l23 -151l129 -25v-47h-428v47l149 25l23 151v627h-174v53l174 33v154q2 156 105 267t284 111q76 0 152 -36.5t130 -92.5l-69 -86q-96 127 -248 127q-113 0 -185.5 -61.5
t-68.5 -190.5l4 -213h375l102 21v190l111 21v-232h239v-65h-239v-641q0 -86 29 -119t86 -33q82 0 141 43z" />
    <glyph glyph-name="NUL" unicode="&#xe000;" horiz-adv-x="0" 
 />
    <glyph glyph-name="apple" unicode="&#xe001;" horiz-adv-x="2048" 
d="M2048 682q-8 3 -29.5 5t-38.5 3h-18q-111 0 -190 -90q-51 -57 -91 -176q-9 16 -14.5 63.5t-18.5 103t-40 93.5q-26 34 -69.5 60.5t-94.5 35.5q-47 12 -55 21q-3 26 -4 73t-2.5 82.5t-7 71.5t-22 56t-44.5 20q-24 0 -39 -14.5t-15 -38.5q0 -21 12.5 -63.5t12.5 -117.5
q0 -80 -8 -92q-6 -12 -28 -16.5t-78 -26t-126 -69.5q-86 91 -120 116q-46 35 -78 35q-131 0 -172 -51q2 16 2 33q0 80 -47.5 154t-116.5 116q-66 40 -134 64t-112 24q-37 0 -45 -16q0 1 -2 8.5t-2.5 9.5t-3 8.5t-4 9t-5 7t-7.5 6t-9.5 3t-11.5 1.5q-47 0 -57 -27
q-10 -22 0 -84q0 -1 9 -64t15.5 -116t14 -131t8.5 -135q1 -14 3 -33.5t2.5 -28t-3 -17.5t-12.5 -15q-105 3 -152 -6v999h2048v-854zM563 817q0 -54 -26.5 -104.5t-67.5 -83.5q-50 -40 -82 -52.5t-82 -19.5h-26q0 48 -12 240.5t-27 238.5q21 -10 39 -12q78 -8 127 -37
q59 -32 108 -82.5t49 -87.5zM2048 -512h-2048v950q41 -9 90.5 -12t65.5 -6q-1 -20 7.5 -93t8.5 -184q0 -196 11.5 -262.5t49.5 -66.5q44 0 56.5 28.5t2.5 57.5l-9 28q0 248 -5.5 294.5t-5.5 205.5q111 15 209 70q75 43 154 145q-1 -24 13 -97.5t18 -113.5q8 -96 32 -217
q25 -130 95 -174q12 -7 66 -19t61 -12h8q23 0 36 1t31 5.5t26.5 16t8.5 30.5q0 29 -19 44t-40.5 18t-56 3.5t-46.5 2.5q-25 4 -45 51t-27.5 85t-7.5 46q-3 18 -10 52.5t-11 56.5l-10 55t-9.5 55t-7.5 49t-5.5 44.5t-2 34.5t2 27t6.5 13q24 19 72 19q38 0 91.5 -57.5
t53.5 -94.5q0 -32 -18 -53.5t-40 -30.5t-40 -24.5t-18 -36.5q0 -27 18 -41.5t35 -11.5q20 3 30 8.5t29.5 23.5t40.5 33t60 74.5t67 77.5q81 55 148 61q18 -210 28 -360q1 -17 -2 -47.5t-6 -51.5l-4 -22q0 -35 42.5 -78t105.5 -43q23 0 38 2t29.5 13t14.5 32q0 32 -11 41.5
t-27 8t-32.5 0.5t-27.5 28t-11 82q0 21 -9.5 103.5t-11.5 129.5l-6 197h45q10 -6 33.5 -17t36 -19t29 -26.5t26.5 -44.5q7 -17 19.5 -116.5t27.5 -224.5t25 -181q9 -24 80 -24q18 0 21 23t6 98.5t18 154.5q14 71 41 126t56 82.5t56 45t44 21.5l18 4q51 0 86 -9v-1087z" />
    <glyph glyph-name="nbspace" unicode="&#xe002;" horiz-adv-x="204" 
 />
  </font>
</defs>
</svg>
