<?xml version="1.0" encoding="utf-8"?>
<!-- Generator: Adobe Illustrator 22.1.0, SVG Export Plug-In . SVG Version: 6.00 Build 0)  -->
<svg version="1.1" id="Capa_1" xmlns="http://www.w3.org/2000/svg" xmlns:xlink="http://www.w3.org/1999/xlink" x="0px" y="0px"
	 viewBox="0 0 400 300" style="enable-background:new 0 0 400 300;" xml:space="preserve">
<style type="text/css">
	.st0{fill:#FF00FF;}
	.st1{fill:#9E005D;}
</style>
<g>
	<rect x="58" y="51" class="st0" width="134" height="134"/>
</g>
<g>
	<g>
		<path class="st0" d="M62,233.5c-10.4-8.4-16.1-22.9-12.1-36c1.8-5.8,5.8-11.8,12-13.4c8.6-2.1,16.1,5,19.8,12
			c3.5,6.4,5,13.6,7.9,20.3c2.1,4.9,4.9,9.5,8.2,13.7c7.2,9.1,17.3,16.7,28.6,20c9,2.6,19.9,2.7,27.7-3.4c8.5-6.7,9.4-18,7.9-28
			c-2-14-6.6-28-11.1-41.4c-2.4-7.1-5-14.2-7.7-21.2c-2.6-6.5-5.4-13-6.7-19.9c-1.2-6.7-0.8-14,4.3-19.2c5.4-5.5,14.4-7.8,21.6-9.9
			c15.2-4.4,29.7-2.7,39.4,10.8c8,11.2,10.8,25.3,13.1,38.6c2.5,14.8,4,29.8,8.9,44.1c7.4,21.7,23,40.7,47.2,42.6
			c23.9,1.8,45.2-13.1,54.4-34.7c8.2-19.1,8-46.4-9.8-60.3c-18.8-14.8-45.8-5.5-56.4,14.4c-4.8,9.1-7.5,21.2-3.6,31.2
			c3.9,9.9,14.1,13.4,24,11.9c23.4-3.5,37.3-27.1,38.3-49c2.3-47.4-38.6-89.2-83.7-96.7c-28.6-4.8-55.4,6.7-83.4,9.9
			c-14.5,1.7-29.2,0.7-43.4-2.7C94.4,64,79.8,59.1,69.6,49.9c-4.8-4.4-8.9-10.2-8.5-17c0.3-7.4,5.8-13.6,12.1-17
			c13.9-7.4,33.3-3.4,48-0.9c29.8,5.1,58.5,14.9,87.9,21.5c56.6,12.8,116,12.2,172.3-1.7c14.1-3.5,28-7.9,41.7-13
			c1.8-0.7,1-3.6-0.8-2.9C368.3,39.1,310,46.7,252.7,40.7c-29.6-3.1-58.1-10.8-86.7-18.5c-14.5-3.9-29.2-7.6-44-10.2
			C109.3,9.9,95.8,7.6,83,9.6c-10.4,1.7-21.1,7.8-24.3,18.6c-2.8,9.6,2.6,18.7,9.8,24.7c9.2,7.8,21.5,12.5,33,15.8
			c12.5,3.6,25.6,5.3,38.6,4.9c28.3-0.8,55.2-13.4,83.7-11.8c23.5,1.3,46.1,12.1,62.9,28.5c17.9,17.5,30,42.7,28.1,68.2
			c-1,13.6-6.7,26.7-17.2,35.6c-8.9,7.6-25.6,14-35.5,4.4c-9.9-9.6-4.7-28.1,1.9-38c7.3-10.9,19.6-17.4,32.8-16.3
			c29.8,2.5,35.4,37.8,26.7,60.8c-9.5,25.1-36.2,41.6-62.8,33.3c-27.1-8.4-35.9-38.8-40.1-63.8c-3.7-22.3-5-53.6-25.9-67.7
			c-10.6-7.1-23.4-5.6-35-2.1c-9.7,3-21.6,6.5-25.6,16.9c-4.1,11,1.3,23.3,5.3,33.4c5.4,13.4,10,27,13.9,40.9
			c3.4,12,8.9,27.1,4.7,39.5c-4.7,13.7-20.4,15.2-32.4,11.2c-12.2-4-22.9-13.2-29.6-24.1c-6.5-10.5-7.6-24-15.6-33.6
			c-6.1-7.2-16.2-11.3-24.6-5.5c-8.3,5.6-11.1,16.8-10.1,26.3c1,10.1,6.1,19.4,14,25.8C61.4,236.9,63.5,234.8,62,233.5L62,233.5z"/>
	</g>
</g>
<ellipse class="st1" cx="278.5" cy="182" rx="11.3" ry="12"/>
</svg>
